<svg width="12" height="8" viewBox="0 0 12 8" fill="none" xmlns="http://www.w3.org/2000/svg">
<path fill-rule="evenodd" clip-rule="evenodd" d="M6.00018 4.94759L10.2934 0.317167C10.3862 0.216955 10.4964 0.137449 10.6176 0.0831871C10.7389 0.0289256 10.8688 0.000971434 11.0001 0.000921313C11.1314 0.000871193 11.2613 0.0287258 11.3826 0.0828947C11.5039 0.137064 11.6141 0.216486 11.707 0.316627C11.7998 0.416768 11.8735 0.535668 11.9238 0.666536C11.9741 0.797403 12 0.937677 12 1.07935C12 1.22102 11.9742 1.36131 11.924 1.49222C11.8739 1.62313 11.8003 1.74208 11.7075 1.84229L6.00018 8L0.292865 1.84229C0.105347 1.63991 5.90018e-08 1.36541 4.66338e-08 1.07919C3.42657e-08 0.792972 0.105347 0.518476 0.292865 0.316088C0.480383 0.113701 0.734713 4.98114e-07 0.999904 4.86388e-07C1.26509 4.74662e-07 1.51943 0.113701 1.70694 0.316088L6.00018 4.94759Z" fill="#062126"/>
</svg>
