<svg width="20" height="21" viewBox="0 0 20 21" fill="none" xmlns="http://www.w3.org/2000/svg">
<path d="M10.1179 5.99191C9.9229 6.0971 9.80133 6.29714 9.80133 6.51471V9.90258H3.11191C2.77414 9.90258 2.5 10.1704 2.5 10.5003C2.5 10.8302 2.77414 11.098 3.11191 11.098H9.80133V14.4859C9.80133 14.7043 9.9229 14.9043 10.1179 15.0087C10.3129 15.1147 10.5511 15.1075 10.7396 14.992L17.2144 11.0064C17.3923 10.8964 17.5 10.7059 17.5 10.5003C17.5 10.2947 17.3923 10.1042 17.2144 9.99424L10.7396 6.00864C10.6401 5.94807 10.5267 5.91699 10.4132 5.91699C10.3121 5.91699 10.2101 5.94249 10.1179 5.99191Z" fill="#6CCF4E"/>
</svg>
