<svg width="100" height="100" viewBox="0 0 100 100" fill="none" xmlns="http://www.w3.org/2000/svg">
<rect width="100" height="100" rx="50" fill="#24A5E0" fill-opacity="0.1"/>
<mask id="path-2-outside-1_2009_113" maskUnits="userSpaceOnUse" x="29" y="29" width="42" height="42" fill="black">
<rect fill="white" x="29" y="29" width="42" height="42"/>
<path fill-rule="evenodd" clip-rule="evenodd" d="M39.5322 30.1347C39.293 30.2112 38.6404 30.5257 38.0818 30.8335C36.4766 31.718 36.2054 31.7917 34.3 31.8615C33.1138 31.905 32.6071 31.954 32.3492 32.0503C31.586 32.3352 30.8703 32.9429 30.4468 33.6659C29.9847 34.4544 30.0009 34.0566 30.0009 44.6115C30.0009 55.5505 29.9477 54.6572 30.6555 55.5966C31.9216 57.2771 34.6434 58.6444 37.3875 58.9785C37.7744 59.0256 38.9439 59.0642 39.9865 59.0643L41.882 59.0646V59.5336V60.0025H39.8853H37.8885L37.6966 60.1944C37.4428 60.4482 37.4428 60.8075 37.6966 61.0613C37.8778 61.2425 37.9377 61.2532 38.7794 61.2532H39.6703L39.7216 61.9762C40.0077 66.0113 43.0384 69.2834 47.0611 69.9003C49.8067 70.3213 52.4554 69.3991 54.4357 67.3325C55.7407 65.9707 56.4942 64.4412 56.7762 62.582C56.8657 61.9913 56.8888 60.7561 56.8892 56.5437L56.8896 51.2481H57.6357C58.3237 51.2481 58.3968 51.2331 58.5737 51.0562L58.7656 50.8644V45.6202V40.376L58.5737 40.1842L58.3819 39.9923H56.2643H54.1468L53.9549 40.1842L53.7631 40.376V45.6202V50.8644L53.9549 51.0562C54.1318 51.2331 54.2049 51.2481 54.8929 51.2481H55.639V56.553C55.639 62.2596 55.6225 62.5441 55.2229 63.7154C54.8377 64.8444 54.2621 65.7681 53.4169 66.6131C51.3863 68.6438 48.5022 69.2745 45.7694 68.2858C43.8177 67.5795 42.1218 65.8841 41.416 63.9338C41.161 63.2289 40.944 62.1537 40.944 61.5947V61.2532H41.8464C42.7004 61.2532 42.7592 61.2429 42.9407 61.0613C43.1229 60.8792 43.1326 60.8225 43.1326 59.9416V59.0136L43.9338 58.8748C44.9037 58.7066 45.9933 58.368 46.8756 57.9606C48.4006 57.2564 49.8378 56.0381 50.335 55.0283L50.5974 54.4953L50.6178 44.7284C50.6403 33.9918 50.6602 34.4831 50.1674 33.6217C49.9099 33.1717 49.2406 32.5009 48.8448 32.2962C48.2001 31.9628 47.9558 31.9208 46.3374 31.864C44.437 31.7975 44.1975 31.7323 42.5834 30.8429C41.0341 29.9892 40.4272 29.8483 39.5322 30.1347ZM60.941 30.0619C60.2493 30.1887 59.6625 30.3934 58.961 30.7526C58.3888 31.0456 58.1182 31.2521 57.5111 31.8593C56.9039 32.4664 56.697 32.7376 56.4021 33.3123C55.8017 34.4823 55.7039 34.9366 55.6596 36.7627L55.6213 38.3401L55.822 38.5409C56.0638 38.7827 56.405 38.8035 56.666 38.5925C56.8459 38.447 56.8517 38.4031 56.8976 36.8533C56.9401 35.4144 56.9638 35.2089 57.1461 34.69C57.4245 33.898 57.7779 33.3356 58.3775 32.7304C58.9662 32.1363 59.5297 31.7809 60.3418 31.4914C60.8224 31.3201 61.0544 31.2861 61.775 31.2819C62.8579 31.2756 63.5071 31.4628 64.3446 32.0229C65.2986 32.6611 65.9089 33.4683 66.3221 34.6388L66.5425 35.2633L66.5819 39.0418L66.6212 42.8202L66.8057 42.9696C67.0648 43.1793 67.408 43.16 67.6456 42.9223L67.8422 42.7257L67.8137 38.9164C67.7812 34.5775 67.7888 34.6355 67.0697 33.2341C66.7746 32.659 66.5682 32.3887 65.9607 31.7816C65.145 30.9665 64.4576 30.5459 63.4164 30.225C62.8038 30.0361 61.5365 29.9526 60.941 30.0619ZM39.4162 31.5448L38.7945 31.8517H40.3187H41.8429L41.2212 31.5448C40.4314 31.1548 40.206 31.1548 39.4162 31.5448ZM32.7912 33.2259C32.1309 33.4632 31.5992 33.9952 31.3644 34.6535C31.2774 34.8974 31.2578 36.6838 31.255 44.6083L31.2515 54.2659L31.4728 54.6134C32.2977 55.909 34.3141 57.0868 36.5731 57.5926C37.347 57.7658 37.5331 57.7748 40.3187 57.7748C43.1042 57.7748 43.2904 57.7658 44.0643 57.5926C45.1049 57.3595 45.7998 57.1097 46.7282 56.635C47.8812 56.0453 49.0026 55.0624 49.2801 54.3982C49.367 54.1903 49.3858 52.4395 49.3858 44.5704C49.3858 35.119 49.3838 34.9901 49.226 34.5687C49.0434 34.0803 48.6065 33.5923 48.1188 33.332L47.7834 33.1529L40.4359 33.136C34.3885 33.122 33.0358 33.138 32.7912 33.2259ZM33.9447 38.9336L33.7528 39.1254V43.7442V48.3631L33.9447 48.5549L34.1365 48.7468H40.3187H46.5008L46.6926 48.5549L46.8845 48.3631V43.7442V39.1254L46.6926 38.9336L46.5008 38.7417H40.3187H34.1365L33.9447 38.9336ZM35.0035 43.7442V47.4962H40.3187H45.6339V43.7442V39.9923H40.3187H35.0035V43.7442ZM55.0137 45.6202V49.9974H56.2643H57.515V45.6202V41.243H56.2643H55.0137V45.6202ZM36.446 42.0602C36.325 42.1811 36.2541 42.3413 36.2541 42.4936C36.2541 42.6459 36.325 42.8061 36.446 42.927L36.6378 43.1189H40.3187H43.9995L44.1914 42.927C44.4452 42.6732 44.4452 42.314 44.1914 42.0602L43.9995 41.8683H40.3187H36.6378L36.446 42.0602ZM36.446 44.5614C36.325 44.6824 36.2541 44.8426 36.2541 44.9949C36.2541 45.1471 36.325 45.3074 36.446 45.4283L36.6378 45.6202H38.7554H40.873L41.0648 45.4283C41.1858 45.3074 41.2567 45.1471 41.2567 44.9949C41.2567 44.8426 41.1858 44.6824 41.0648 44.5614L40.873 44.3696H38.7554H36.6378L36.446 44.5614ZM65.2107 44.5614L65.0188 44.7533V47.1835V49.6137L65.2107 49.8055C65.3805 49.9754 65.4704 49.9974 65.9923 49.9974H66.5821V52.4631V54.9289L66.774 55.1208C67.0278 55.3746 67.387 55.3746 67.6408 55.1208L67.8327 54.9289V52.4631V49.9974H68.4225C68.9445 49.9974 69.0344 49.9754 69.2041 49.8055L69.396 49.6137V47.1835V44.7533L69.2041 44.5614L69.0123 44.3696H67.2074H65.4025L65.2107 44.5614ZM66.2694 47.1835V48.7468H67.2074H68.1454V47.1835V45.6202H67.2074H66.2694V47.1835ZM66.8788 57.5837C66.6756 57.7021 65.9086 58.9847 65.3619 60.1198C64.6716 61.5534 64.4505 62.3319 64.4405 63.3636C64.4334 64.0975 64.4543 64.2299 64.6377 64.6143C64.9275 65.2211 65.3193 65.6379 65.8922 65.9485C66.3661 66.2055 66.4208 66.2167 67.2074 66.2167C67.994 66.2167 68.0487 66.2055 68.5226 65.9485C69.3634 65.4927 69.9065 64.6808 69.993 63.7506C70.1203 62.381 69.4074 60.3204 68.1417 58.4C67.8528 57.9617 67.5567 57.5802 67.4837 57.5522C67.2947 57.4797 67.034 57.4932 66.8788 57.5837ZM66.8015 59.983C66.0981 61.302 65.6441 62.6675 65.6441 63.4645C65.6441 63.9261 65.9265 64.4397 66.3408 64.7315C66.6301 64.9353 66.742 64.966 67.1946 64.966C67.8101 64.966 68.1964 64.7701 68.5071 64.3004C68.8916 63.7196 68.8141 62.6717 68.2877 61.3313C68.0483 60.722 67.2964 59.2991 67.2136 59.2991C67.1876 59.2991 67.0021 59.6069 66.8015 59.983Z"/>
</mask>
<path fill-rule="evenodd" clip-rule="evenodd" d="M39.5322 30.1347C39.293 30.2112 38.6404 30.5257 38.0818 30.8335C36.4766 31.718 36.2054 31.7917 34.3 31.8615C33.1138 31.905 32.6071 31.954 32.3492 32.0503C31.586 32.3352 30.8703 32.9429 30.4468 33.6659C29.9847 34.4544 30.0009 34.0566 30.0009 44.6115C30.0009 55.5505 29.9477 54.6572 30.6555 55.5966C31.9216 57.2771 34.6434 58.6444 37.3875 58.9785C37.7744 59.0256 38.9439 59.0642 39.9865 59.0643L41.882 59.0646V59.5336V60.0025H39.8853H37.8885L37.6966 60.1944C37.4428 60.4482 37.4428 60.8075 37.6966 61.0613C37.8778 61.2425 37.9377 61.2532 38.7794 61.2532H39.6703L39.7216 61.9762C40.0077 66.0113 43.0384 69.2834 47.0611 69.9003C49.8067 70.3213 52.4554 69.3991 54.4357 67.3325C55.7407 65.9707 56.4942 64.4412 56.7762 62.582C56.8657 61.9913 56.8888 60.7561 56.8892 56.5437L56.8896 51.2481H57.6357C58.3237 51.2481 58.3968 51.2331 58.5737 51.0562L58.7656 50.8644V45.6202V40.376L58.5737 40.1842L58.3819 39.9923H56.2643H54.1468L53.9549 40.1842L53.7631 40.376V45.6202V50.8644L53.9549 51.0562C54.1318 51.2331 54.2049 51.2481 54.8929 51.2481H55.639V56.553C55.639 62.2596 55.6225 62.5441 55.2229 63.7154C54.8377 64.8444 54.2621 65.7681 53.4169 66.6131C51.3863 68.6438 48.5022 69.2745 45.7694 68.2858C43.8177 67.5795 42.1218 65.8841 41.416 63.9338C41.161 63.2289 40.944 62.1537 40.944 61.5947V61.2532H41.8464C42.7004 61.2532 42.7592 61.2429 42.9407 61.0613C43.1229 60.8792 43.1326 60.8225 43.1326 59.9416V59.0136L43.9338 58.8748C44.9037 58.7066 45.9933 58.368 46.8756 57.9606C48.4006 57.2564 49.8378 56.0381 50.335 55.0283L50.5974 54.4953L50.6178 44.7284C50.6403 33.9918 50.6602 34.4831 50.1674 33.6217C49.9099 33.1717 49.2406 32.5009 48.8448 32.2962C48.2001 31.9628 47.9558 31.9208 46.3374 31.864C44.437 31.7975 44.1975 31.7323 42.5834 30.8429C41.0341 29.9892 40.4272 29.8483 39.5322 30.1347ZM60.941 30.0619C60.2493 30.1887 59.6625 30.3934 58.961 30.7526C58.3888 31.0456 58.1182 31.2521 57.5111 31.8593C56.9039 32.4664 56.697 32.7376 56.4021 33.3123C55.8017 34.4823 55.7039 34.9366 55.6596 36.7627L55.6213 38.3401L55.822 38.5409C56.0638 38.7827 56.405 38.8035 56.666 38.5925C56.8459 38.447 56.8517 38.4031 56.8976 36.8533C56.9401 35.4144 56.9638 35.2089 57.1461 34.69C57.4245 33.898 57.7779 33.3356 58.3775 32.7304C58.9662 32.1363 59.5297 31.7809 60.3418 31.4914C60.8224 31.3201 61.0544 31.2861 61.775 31.2819C62.8579 31.2756 63.5071 31.4628 64.3446 32.0229C65.2986 32.6611 65.9089 33.4683 66.3221 34.6388L66.5425 35.2633L66.5819 39.0418L66.6212 42.8202L66.8057 42.9696C67.0648 43.1793 67.408 43.16 67.6456 42.9223L67.8422 42.7257L67.8137 38.9164C67.7812 34.5775 67.7888 34.6355 67.0697 33.2341C66.7746 32.659 66.5682 32.3887 65.9607 31.7816C65.145 30.9665 64.4576 30.5459 63.4164 30.225C62.8038 30.0361 61.5365 29.9526 60.941 30.0619ZM39.4162 31.5448L38.7945 31.8517H40.3187H41.8429L41.2212 31.5448C40.4314 31.1548 40.206 31.1548 39.4162 31.5448ZM32.7912 33.2259C32.1309 33.4632 31.5992 33.9952 31.3644 34.6535C31.2774 34.8974 31.2578 36.6838 31.255 44.6083L31.2515 54.2659L31.4728 54.6134C32.2977 55.909 34.3141 57.0868 36.5731 57.5926C37.347 57.7658 37.5331 57.7748 40.3187 57.7748C43.1042 57.7748 43.2904 57.7658 44.0643 57.5926C45.1049 57.3595 45.7998 57.1097 46.7282 56.635C47.8812 56.0453 49.0026 55.0624 49.2801 54.3982C49.367 54.1903 49.3858 52.4395 49.3858 44.5704C49.3858 35.119 49.3838 34.9901 49.226 34.5687C49.0434 34.0803 48.6065 33.5923 48.1188 33.332L47.7834 33.1529L40.4359 33.136C34.3885 33.122 33.0358 33.138 32.7912 33.2259ZM33.9447 38.9336L33.7528 39.1254V43.7442V48.3631L33.9447 48.5549L34.1365 48.7468H40.3187H46.5008L46.6926 48.5549L46.8845 48.3631V43.7442V39.1254L46.6926 38.9336L46.5008 38.7417H40.3187H34.1365L33.9447 38.9336ZM35.0035 43.7442V47.4962H40.3187H45.6339V43.7442V39.9923H40.3187H35.0035V43.7442ZM55.0137 45.6202V49.9974H56.2643H57.515V45.6202V41.243H56.2643H55.0137V45.6202ZM36.446 42.0602C36.325 42.1811 36.2541 42.3413 36.2541 42.4936C36.2541 42.6459 36.325 42.8061 36.446 42.927L36.6378 43.1189H40.3187H43.9995L44.1914 42.927C44.4452 42.6732 44.4452 42.314 44.1914 42.0602L43.9995 41.8683H40.3187H36.6378L36.446 42.0602ZM36.446 44.5614C36.325 44.6824 36.2541 44.8426 36.2541 44.9949C36.2541 45.1471 36.325 45.3074 36.446 45.4283L36.6378 45.6202H38.7554H40.873L41.0648 45.4283C41.1858 45.3074 41.2567 45.1471 41.2567 44.9949C41.2567 44.8426 41.1858 44.6824 41.0648 44.5614L40.873 44.3696H38.7554H36.6378L36.446 44.5614ZM65.2107 44.5614L65.0188 44.7533V47.1835V49.6137L65.2107 49.8055C65.3805 49.9754 65.4704 49.9974 65.9923 49.9974H66.5821V52.4631V54.9289L66.774 55.1208C67.0278 55.3746 67.387 55.3746 67.6408 55.1208L67.8327 54.9289V52.4631V49.9974H68.4225C68.9445 49.9974 69.0344 49.9754 69.2041 49.8055L69.396 49.6137V47.1835V44.7533L69.2041 44.5614L69.0123 44.3696H67.2074H65.4025L65.2107 44.5614ZM66.2694 47.1835V48.7468H67.2074H68.1454V47.1835V45.6202H67.2074H66.2694V47.1835ZM66.8788 57.5837C66.6756 57.7021 65.9086 58.9847 65.3619 60.1198C64.6716 61.5534 64.4505 62.3319 64.4405 63.3636C64.4334 64.0975 64.4543 64.2299 64.6377 64.6143C64.9275 65.2211 65.3193 65.6379 65.8922 65.9485C66.3661 66.2055 66.4208 66.2167 67.2074 66.2167C67.994 66.2167 68.0487 66.2055 68.5226 65.9485C69.3634 65.4927 69.9065 64.6808 69.993 63.7506C70.1203 62.381 69.4074 60.3204 68.1417 58.4C67.8528 57.9617 67.5567 57.5802 67.4837 57.5522C67.2947 57.4797 67.034 57.4932 66.8788 57.5837ZM66.8015 59.983C66.0981 61.302 65.6441 62.6675 65.6441 63.4645C65.6441 63.9261 65.9265 64.4397 66.3408 64.7315C66.6301 64.9353 66.742 64.966 67.1946 64.966C67.8101 64.966 68.1964 64.7701 68.5071 64.3004C68.8916 63.7196 68.8141 62.6717 68.2877 61.3313C68.0483 60.722 67.2964 59.2991 67.2136 59.2991C67.1876 59.2991 67.0021 59.6069 66.8015 59.983Z" fill="#24A5E0"/>
<path fill-rule="evenodd" clip-rule="evenodd" d="M39.5322 30.1347C39.293 30.2112 38.6404 30.5257 38.0818 30.8335C36.4766 31.718 36.2054 31.7917 34.3 31.8615C33.1138 31.905 32.6071 31.954 32.3492 32.0503C31.586 32.3352 30.8703 32.9429 30.4468 33.6659C29.9847 34.4544 30.0009 34.0566 30.0009 44.6115C30.0009 55.5505 29.9477 54.6572 30.6555 55.5966C31.9216 57.2771 34.6434 58.6444 37.3875 58.9785C37.7744 59.0256 38.9439 59.0642 39.9865 59.0643L41.882 59.0646V59.5336V60.0025H39.8853H37.8885L37.6966 60.1944C37.4428 60.4482 37.4428 60.8075 37.6966 61.0613C37.8778 61.2425 37.9377 61.2532 38.7794 61.2532H39.6703L39.7216 61.9762C40.0077 66.0113 43.0384 69.2834 47.0611 69.9003C49.8067 70.3213 52.4554 69.3991 54.4357 67.3325C55.7407 65.9707 56.4942 64.4412 56.7762 62.582C56.8657 61.9913 56.8888 60.7561 56.8892 56.5437L56.8896 51.2481H57.6357C58.3237 51.2481 58.3968 51.2331 58.5737 51.0562L58.7656 50.8644V45.6202V40.376L58.5737 40.1842L58.3819 39.9923H56.2643H54.1468L53.9549 40.1842L53.7631 40.376V45.6202V50.8644L53.9549 51.0562C54.1318 51.2331 54.2049 51.2481 54.8929 51.2481H55.639V56.553C55.639 62.2596 55.6225 62.5441 55.2229 63.7154C54.8377 64.8444 54.2621 65.7681 53.4169 66.6131C51.3863 68.6438 48.5022 69.2745 45.7694 68.2858C43.8177 67.5795 42.1218 65.8841 41.416 63.9338C41.161 63.2289 40.944 62.1537 40.944 61.5947V61.2532H41.8464C42.7004 61.2532 42.7592 61.2429 42.9407 61.0613C43.1229 60.8792 43.1326 60.8225 43.1326 59.9416V59.0136L43.9338 58.8748C44.9037 58.7066 45.9933 58.368 46.8756 57.9606C48.4006 57.2564 49.8378 56.0381 50.335 55.0283L50.5974 54.4953L50.6178 44.7284C50.6403 33.9918 50.6602 34.4831 50.1674 33.6217C49.9099 33.1717 49.2406 32.5009 48.8448 32.2962C48.2001 31.9628 47.9558 31.9208 46.3374 31.864C44.437 31.7975 44.1975 31.7323 42.5834 30.8429C41.0341 29.9892 40.4272 29.8483 39.5322 30.1347ZM60.941 30.0619C60.2493 30.1887 59.6625 30.3934 58.961 30.7526C58.3888 31.0456 58.1182 31.2521 57.5111 31.8593C56.9039 32.4664 56.697 32.7376 56.4021 33.3123C55.8017 34.4823 55.7039 34.9366 55.6596 36.7627L55.6213 38.3401L55.822 38.5409C56.0638 38.7827 56.405 38.8035 56.666 38.5925C56.8459 38.447 56.8517 38.4031 56.8976 36.8533C56.9401 35.4144 56.9638 35.2089 57.1461 34.69C57.4245 33.898 57.7779 33.3356 58.3775 32.7304C58.9662 32.1363 59.5297 31.7809 60.3418 31.4914C60.8224 31.3201 61.0544 31.2861 61.775 31.2819C62.8579 31.2756 63.5071 31.4628 64.3446 32.0229C65.2986 32.6611 65.9089 33.4683 66.3221 34.6388L66.5425 35.2633L66.5819 39.0418L66.6212 42.8202L66.8057 42.9696C67.0648 43.1793 67.408 43.16 67.6456 42.9223L67.8422 42.7257L67.8137 38.9164C67.7812 34.5775 67.7888 34.6355 67.0697 33.2341C66.7746 32.659 66.5682 32.3887 65.9607 31.7816C65.145 30.9665 64.4576 30.5459 63.4164 30.225C62.8038 30.0361 61.5365 29.9526 60.941 30.0619ZM39.4162 31.5448L38.7945 31.8517H40.3187H41.8429L41.2212 31.5448C40.4314 31.1548 40.206 31.1548 39.4162 31.5448ZM32.7912 33.2259C32.1309 33.4632 31.5992 33.9952 31.3644 34.6535C31.2774 34.8974 31.2578 36.6838 31.255 44.6083L31.2515 54.2659L31.4728 54.6134C32.2977 55.909 34.3141 57.0868 36.5731 57.5926C37.347 57.7658 37.5331 57.7748 40.3187 57.7748C43.1042 57.7748 43.2904 57.7658 44.0643 57.5926C45.1049 57.3595 45.7998 57.1097 46.7282 56.635C47.8812 56.0453 49.0026 55.0624 49.2801 54.3982C49.367 54.1903 49.3858 52.4395 49.3858 44.5704C49.3858 35.119 49.3838 34.9901 49.226 34.5687C49.0434 34.0803 48.6065 33.5923 48.1188 33.332L47.7834 33.1529L40.4359 33.136C34.3885 33.122 33.0358 33.138 32.7912 33.2259ZM33.9447 38.9336L33.7528 39.1254V43.7442V48.3631L33.9447 48.5549L34.1365 48.7468H40.3187H46.5008L46.6926 48.5549L46.8845 48.3631V43.7442V39.1254L46.6926 38.9336L46.5008 38.7417H40.3187H34.1365L33.9447 38.9336ZM35.0035 43.7442V47.4962H40.3187H45.6339V43.7442V39.9923H40.3187H35.0035V43.7442ZM55.0137 45.6202V49.9974H56.2643H57.515V45.6202V41.243H56.2643H55.0137V45.6202ZM36.446 42.0602C36.325 42.1811 36.2541 42.3413 36.2541 42.4936C36.2541 42.6459 36.325 42.8061 36.446 42.927L36.6378 43.1189H40.3187H43.9995L44.1914 42.927C44.4452 42.6732 44.4452 42.314 44.1914 42.0602L43.9995 41.8683H40.3187H36.6378L36.446 42.0602ZM36.446 44.5614C36.325 44.6824 36.2541 44.8426 36.2541 44.9949C36.2541 45.1471 36.325 45.3074 36.446 45.4283L36.6378 45.6202H38.7554H40.873L41.0648 45.4283C41.1858 45.3074 41.2567 45.1471 41.2567 44.9949C41.2567 44.8426 41.1858 44.6824 41.0648 44.5614L40.873 44.3696H38.7554H36.6378L36.446 44.5614ZM65.2107 44.5614L65.0188 44.7533V47.1835V49.6137L65.2107 49.8055C65.3805 49.9754 65.4704 49.9974 65.9923 49.9974H66.5821V52.4631V54.9289L66.774 55.1208C67.0278 55.3746 67.387 55.3746 67.6408 55.1208L67.8327 54.9289V52.4631V49.9974H68.4225C68.9445 49.9974 69.0344 49.9754 69.2041 49.8055L69.396 49.6137V47.1835V44.7533L69.2041 44.5614L69.0123 44.3696H67.2074H65.4025L65.2107 44.5614ZM66.2694 47.1835V48.7468H67.2074H68.1454V47.1835V45.6202H67.2074H66.2694V47.1835ZM66.8788 57.5837C66.6756 57.7021 65.9086 58.9847 65.3619 60.1198C64.6716 61.5534 64.4505 62.3319 64.4405 63.3636C64.4334 64.0975 64.4543 64.2299 64.6377 64.6143C64.9275 65.2211 65.3193 65.6379 65.8922 65.9485C66.3661 66.2055 66.4208 66.2167 67.2074 66.2167C67.994 66.2167 68.0487 66.2055 68.5226 65.9485C69.3634 65.4927 69.9065 64.6808 69.993 63.7506C70.1203 62.381 69.4074 60.3204 68.1417 58.4C67.8528 57.9617 67.5567 57.5802 67.4837 57.5522C67.2947 57.4797 67.034 57.4932 66.8788 57.5837ZM66.8015 59.983C66.0981 61.302 65.6441 62.6675 65.6441 63.4645C65.6441 63.9261 65.9265 64.4397 66.3408 64.7315C66.6301 64.9353 66.742 64.966 67.1946 64.966C67.8101 64.966 68.1964 64.7701 68.5071 64.3004C68.8916 63.7196 68.8141 62.6717 68.2877 61.3313C68.0483 60.722 67.2964 59.2991 67.2136 59.2991C67.1876 59.2991 67.0021 59.6069 66.8015 59.983Z" stroke="#24A5E0" stroke-width="0.6" stroke-linejoin="round" mask="url(#path-2-outside-1_2009_113)"/>
</svg>
