<svg width="100" height="100" viewBox="0 0 100 100" fill="none" xmlns="http://www.w3.org/2000/svg">
<rect width="100" height="100" rx="50" fill="#24A5E0" fill-opacity="0.1"/>
<mask id="path-2-outside-1_2009_123" maskUnits="userSpaceOnUse" x="29" y="29" width="42" height="42" fill="black">
<rect fill="white" x="29" y="29" width="42" height="42"/>
<path fill-rule="evenodd" clip-rule="evenodd" d="M63.1056 30.1096C60.9839 30.5767 59.3405 32.2245 58.6434 34.5838C58.3477 35.5846 58.2995 37.008 58.5246 38.0959C58.9675 40.2363 59.9662 42.2331 61.2501 43.5456C61.7931 44.1006 62.2094 44.3952 62.8796 44.6992L63.3863 44.9289L63.3583 53.3882C63.327 62.8175 63.356 62.3043 62.7763 63.6845C61.8233 65.9533 59.7475 67.6896 57.3993 68.1821C56.4159 68.3884 55.0076 68.3574 54.0443 68.1083C51.3329 67.4075 49.3048 65.3681 48.6091 62.6429C48.5304 62.3345 48.4533 61.9079 48.4379 61.6948L48.41 61.3077L49.2698 61.1675C51.6962 60.772 53.0808 60.1631 53.2931 59.3983C53.3369 59.2406 53.373 58.4012 53.3732 57.5328L53.3737 55.9537L53.9827 55.6369C57.2843 53.9193 59.0216 49.9312 58.0731 46.2468C57.491 43.9852 55.8356 41.9464 53.7059 40.868L53.3737 40.6997L53.3732 38.2977C53.373 36.9081 53.3392 35.7747 53.2931 35.6089C52.8802 34.122 48.0707 33.2692 40.7104 33.378C35.3371 33.4574 32.1467 33.9431 30.6378 34.9113C29.9414 35.3582 30.0013 34.1735 30.0013 47.5036C30.0013 60.8337 29.9414 59.6492 30.6378 60.0961C31.7045 60.7805 33.3462 61.1576 36.6065 61.4669C38.168 61.615 43.4875 61.6645 45.5639 61.5504L46.7045 61.4877L46.7996 62.1758C46.9077 62.9576 47.305 64.2172 47.674 64.9486C49.4355 68.4394 53.2543 70.4534 57.087 69.9129C60.5683 69.422 63.4344 67.0303 64.5483 63.6866C65.0137 62.2896 65.0178 62.1986 65.0194 53.1307L65.0208 44.8827L65.3958 44.7494C66.6308 44.3108 67.9972 42.8337 68.8859 40.9765C69.3813 39.9411 69.8339 38.8991 69.9645 37.4738C70.0356 36.6978 70.0417 36.2489 69.9228 35.4788C69.7644 34.453 69.4616 33.6774 69.0621 32.9643C68.8465 32.5792 68.4914 32.1333 68.0277 31.665C67.4223 31.0536 67.2164 30.9011 66.5816 30.5949C65.4145 30.0318 64.2179 29.8647 63.1056 30.1096ZM63.5356 31.7221C62.7908 31.8498 62.171 32.1992 61.5046 32.8673C60.5765 33.7975 60.1402 34.833 60.0478 36.3255C59.896 38.7765 61.6783 42.3645 63.4331 43.1408C64.2435 43.4992 65.0129 43.2908 65.8518 42.4853C67.2416 41.1507 68.3251 38.5886 68.3246 36.6382C68.3243 35.6385 68.1699 34.9434 67.7601 34.0977C66.9263 32.3768 65.2421 31.4297 63.5356 31.7221ZM39.5378 35.0431C37.1324 35.1556 34.6622 35.4115 33.3154 35.6875L32.6199 35.8299L33.0499 35.9264C34.8179 36.3232 37.5371 36.5618 40.8667 36.6125C43.8484 36.6579 45.911 36.5566 48.2538 36.2498C49.3531 36.1058 50.636 35.8844 50.6914 35.829C50.7234 35.7969 48.9808 35.4897 48.1755 35.3854C46.2131 35.1312 41.578 34.9475 39.5378 35.0431ZM30.0394 47.5036C30.0394 54.06 30.0486 56.7422 30.0599 53.464C30.0712 50.1858 30.0712 44.8215 30.0599 41.5433C30.0486 38.2651 30.0394 40.9472 30.0394 47.5036ZM31.6428 48.0659V58.8849L31.8969 58.9741C32.3267 59.125 33.0543 59.2927 33.8315 59.42C34.24 59.4869 34.6708 59.5584 34.7891 59.5788L35.0041 59.6159V48.7929V37.9701L34.8282 37.9333C34.7314 37.9131 34.3006 37.8403 33.8706 37.7713C33.1556 37.6568 32.0689 37.4104 31.7663 37.2942C31.6542 37.2512 31.6428 38.2417 31.6428 48.0659ZM51.0677 37.4275C49.1383 38.043 43.9838 38.4272 39.6372 38.2794C38.5095 38.2411 37.3752 38.1858 37.1163 38.1565L36.6456 38.1032V48.932V59.7608L37.0951 59.8099C37.9336 59.9016 40.509 60.0092 41.8438 60.0084C45.2543 60.0064 49.4865 59.5795 51.1308 59.0716L51.654 58.9101V57.6931C51.654 56.5644 51.644 56.4805 51.5172 56.534C51.442 56.5658 50.9055 56.6088 50.3251 56.6295C48.8687 56.6815 47.9531 56.5085 46.6121 55.9278C44.456 54.9942 42.6596 52.9238 42.0063 50.6197C41.6295 49.2903 41.6094 47.4898 41.9572 46.2138C42.9921 42.4173 46.5627 39.8045 50.4033 40.0329C50.8547 40.0598 51.3208 40.1024 51.439 40.1278L51.654 40.1741V38.7188C51.654 37.9184 51.6276 37.2668 51.5953 37.2707C51.563 37.2746 51.3256 37.3453 51.0677 37.4275ZM49.2056 41.721C47.6617 41.9081 46.2361 42.6524 45.1195 43.8541C44.2528 44.7868 43.7296 45.8057 43.4768 47.0535C43.3069 47.8922 43.3631 49.334 43.5974 50.147C44.2294 52.339 45.9529 54.0692 48.1755 54.7429C48.8024 54.9329 49.0022 54.9562 50.0124 54.9562C51.0226 54.9562 51.2224 54.9329 51.8494 54.7429C54.0719 54.0692 55.7955 52.339 56.4274 50.147C56.6617 49.334 56.7179 47.8922 56.548 47.0535C56.2952 45.8057 55.772 44.7868 54.9054 43.8541C53.4167 42.252 51.3147 41.4653 49.2056 41.721ZM49.5175 43.5207C49.2168 43.7572 49.1535 44.1175 49.153 45.5935L49.1526 46.9273L48.9109 47.1569C48.1818 47.8495 48.196 48.9355 48.9428 49.5911C49.9954 50.5154 51.6457 49.7538 51.6522 48.3409C51.6542 47.9073 51.4645 47.4899 51.114 47.1569L50.8723 46.9273L50.8718 45.5935C50.8716 44.8599 50.8352 44.1295 50.791 43.9701C50.6869 43.5955 50.3871 43.3607 50.0124 43.3607C49.837 43.3607 49.6398 43.4245 49.5175 43.5207Z"/>
</mask>
<path fill-rule="evenodd" clip-rule="evenodd" d="M63.1056 30.1096C60.9839 30.5767 59.3405 32.2245 58.6434 34.5838C58.3477 35.5846 58.2995 37.008 58.5246 38.0959C58.9675 40.2363 59.9662 42.2331 61.2501 43.5456C61.7931 44.1006 62.2094 44.3952 62.8796 44.6992L63.3863 44.9289L63.3583 53.3882C63.327 62.8175 63.356 62.3043 62.7763 63.6845C61.8233 65.9533 59.7475 67.6896 57.3993 68.1821C56.4159 68.3884 55.0076 68.3574 54.0443 68.1083C51.3329 67.4075 49.3048 65.3681 48.6091 62.6429C48.5304 62.3345 48.4533 61.9079 48.4379 61.6948L48.41 61.3077L49.2698 61.1675C51.6962 60.772 53.0808 60.1631 53.2931 59.3983C53.3369 59.2406 53.373 58.4012 53.3732 57.5328L53.3737 55.9537L53.9827 55.6369C57.2843 53.9193 59.0216 49.9312 58.0731 46.2468C57.491 43.9852 55.8356 41.9464 53.7059 40.868L53.3737 40.6997L53.3732 38.2977C53.373 36.9081 53.3392 35.7747 53.2931 35.6089C52.8802 34.122 48.0707 33.2692 40.7104 33.378C35.3371 33.4574 32.1467 33.9431 30.6378 34.9113C29.9414 35.3582 30.0013 34.1735 30.0013 47.5036C30.0013 60.8337 29.9414 59.6492 30.6378 60.0961C31.7045 60.7805 33.3462 61.1576 36.6065 61.4669C38.168 61.615 43.4875 61.6645 45.5639 61.5504L46.7045 61.4877L46.7996 62.1758C46.9077 62.9576 47.305 64.2172 47.674 64.9486C49.4355 68.4394 53.2543 70.4534 57.087 69.9129C60.5683 69.422 63.4344 67.0303 64.5483 63.6866C65.0137 62.2896 65.0178 62.1986 65.0194 53.1307L65.0208 44.8827L65.3958 44.7494C66.6308 44.3108 67.9972 42.8337 68.8859 40.9765C69.3813 39.9411 69.8339 38.8991 69.9645 37.4738C70.0356 36.6978 70.0417 36.2489 69.9228 35.4788C69.7644 34.453 69.4616 33.6774 69.0621 32.9643C68.8465 32.5792 68.4914 32.1333 68.0277 31.665C67.4223 31.0536 67.2164 30.9011 66.5816 30.5949C65.4145 30.0318 64.2179 29.8647 63.1056 30.1096ZM63.5356 31.7221C62.7908 31.8498 62.171 32.1992 61.5046 32.8673C60.5765 33.7975 60.1402 34.833 60.0478 36.3255C59.896 38.7765 61.6783 42.3645 63.4331 43.1408C64.2435 43.4992 65.0129 43.2908 65.8518 42.4853C67.2416 41.1507 68.3251 38.5886 68.3246 36.6382C68.3243 35.6385 68.1699 34.9434 67.7601 34.0977C66.9263 32.3768 65.2421 31.4297 63.5356 31.7221ZM39.5378 35.0431C37.1324 35.1556 34.6622 35.4115 33.3154 35.6875L32.6199 35.8299L33.0499 35.9264C34.8179 36.3232 37.5371 36.5618 40.8667 36.6125C43.8484 36.6579 45.911 36.5566 48.2538 36.2498C49.3531 36.1058 50.636 35.8844 50.6914 35.829C50.7234 35.7969 48.9808 35.4897 48.1755 35.3854C46.2131 35.1312 41.578 34.9475 39.5378 35.0431ZM30.0394 47.5036C30.0394 54.06 30.0486 56.7422 30.0599 53.464C30.0712 50.1858 30.0712 44.8215 30.0599 41.5433C30.0486 38.2651 30.0394 40.9472 30.0394 47.5036ZM31.6428 48.0659V58.8849L31.8969 58.9741C32.3267 59.125 33.0543 59.2927 33.8315 59.42C34.24 59.4869 34.6708 59.5584 34.7891 59.5788L35.0041 59.6159V48.7929V37.9701L34.8282 37.9333C34.7314 37.9131 34.3006 37.8403 33.8706 37.7713C33.1556 37.6568 32.0689 37.4104 31.7663 37.2942C31.6542 37.2512 31.6428 38.2417 31.6428 48.0659ZM51.0677 37.4275C49.1383 38.043 43.9838 38.4272 39.6372 38.2794C38.5095 38.2411 37.3752 38.1858 37.1163 38.1565L36.6456 38.1032V48.932V59.7608L37.0951 59.8099C37.9336 59.9016 40.509 60.0092 41.8438 60.0084C45.2543 60.0064 49.4865 59.5795 51.1308 59.0716L51.654 58.9101V57.6931C51.654 56.5644 51.644 56.4805 51.5172 56.534C51.442 56.5658 50.9055 56.6088 50.3251 56.6295C48.8687 56.6815 47.9531 56.5085 46.6121 55.9278C44.456 54.9942 42.6596 52.9238 42.0063 50.6197C41.6295 49.2903 41.6094 47.4898 41.9572 46.2138C42.9921 42.4173 46.5627 39.8045 50.4033 40.0329C50.8547 40.0598 51.3208 40.1024 51.439 40.1278L51.654 40.1741V38.7188C51.654 37.9184 51.6276 37.2668 51.5953 37.2707C51.563 37.2746 51.3256 37.3453 51.0677 37.4275ZM49.2056 41.721C47.6617 41.9081 46.2361 42.6524 45.1195 43.8541C44.2528 44.7868 43.7296 45.8057 43.4768 47.0535C43.3069 47.8922 43.3631 49.334 43.5974 50.147C44.2294 52.339 45.9529 54.0692 48.1755 54.7429C48.8024 54.9329 49.0022 54.9562 50.0124 54.9562C51.0226 54.9562 51.2224 54.9329 51.8494 54.7429C54.0719 54.0692 55.7955 52.339 56.4274 50.147C56.6617 49.334 56.7179 47.8922 56.548 47.0535C56.2952 45.8057 55.772 44.7868 54.9054 43.8541C53.4167 42.252 51.3147 41.4653 49.2056 41.721ZM49.5175 43.5207C49.2168 43.7572 49.1535 44.1175 49.153 45.5935L49.1526 46.9273L48.9109 47.1569C48.1818 47.8495 48.196 48.9355 48.9428 49.5911C49.9954 50.5154 51.6457 49.7538 51.6522 48.3409C51.6542 47.9073 51.4645 47.4899 51.114 47.1569L50.8723 46.9273L50.8718 45.5935C50.8716 44.8599 50.8352 44.1295 50.791 43.9701C50.6869 43.5955 50.3871 43.3607 50.0124 43.3607C49.837 43.3607 49.6398 43.4245 49.5175 43.5207Z" fill="#24A5E0"/>
<path fill-rule="evenodd" clip-rule="evenodd" d="M63.1056 30.1096C60.9839 30.5767 59.3405 32.2245 58.6434 34.5838C58.3477 35.5846 58.2995 37.008 58.5246 38.0959C58.9675 40.2363 59.9662 42.2331 61.2501 43.5456C61.7931 44.1006 62.2094 44.3952 62.8796 44.6992L63.3863 44.9289L63.3583 53.3882C63.327 62.8175 63.356 62.3043 62.7763 63.6845C61.8233 65.9533 59.7475 67.6896 57.3993 68.1821C56.4159 68.3884 55.0076 68.3574 54.0443 68.1083C51.3329 67.4075 49.3048 65.3681 48.6091 62.6429C48.5304 62.3345 48.4533 61.9079 48.4379 61.6948L48.41 61.3077L49.2698 61.1675C51.6962 60.772 53.0808 60.1631 53.2931 59.3983C53.3369 59.2406 53.373 58.4012 53.3732 57.5328L53.3737 55.9537L53.9827 55.6369C57.2843 53.9193 59.0216 49.9312 58.0731 46.2468C57.491 43.9852 55.8356 41.9464 53.7059 40.868L53.3737 40.6997L53.3732 38.2977C53.373 36.9081 53.3392 35.7747 53.2931 35.6089C52.8802 34.122 48.0707 33.2692 40.7104 33.378C35.3371 33.4574 32.1467 33.9431 30.6378 34.9113C29.9414 35.3582 30.0013 34.1735 30.0013 47.5036C30.0013 60.8337 29.9414 59.6492 30.6378 60.0961C31.7045 60.7805 33.3462 61.1576 36.6065 61.4669C38.168 61.615 43.4875 61.6645 45.5639 61.5504L46.7045 61.4877L46.7996 62.1758C46.9077 62.9576 47.305 64.2172 47.674 64.9486C49.4355 68.4394 53.2543 70.4534 57.087 69.9129C60.5683 69.422 63.4344 67.0303 64.5483 63.6866C65.0137 62.2896 65.0178 62.1986 65.0194 53.1307L65.0208 44.8827L65.3958 44.7494C66.6308 44.3108 67.9972 42.8337 68.8859 40.9765C69.3813 39.9411 69.8339 38.8991 69.9645 37.4738C70.0356 36.6978 70.0417 36.2489 69.9228 35.4788C69.7644 34.453 69.4616 33.6774 69.0621 32.9643C68.8465 32.5792 68.4914 32.1333 68.0277 31.665C67.4223 31.0536 67.2164 30.9011 66.5816 30.5949C65.4145 30.0318 64.2179 29.8647 63.1056 30.1096ZM63.5356 31.7221C62.7908 31.8498 62.171 32.1992 61.5046 32.8673C60.5765 33.7975 60.1402 34.833 60.0478 36.3255C59.896 38.7765 61.6783 42.3645 63.4331 43.1408C64.2435 43.4992 65.0129 43.2908 65.8518 42.4853C67.2416 41.1507 68.3251 38.5886 68.3246 36.6382C68.3243 35.6385 68.1699 34.9434 67.7601 34.0977C66.9263 32.3768 65.2421 31.4297 63.5356 31.7221ZM39.5378 35.0431C37.1324 35.1556 34.6622 35.4115 33.3154 35.6875L32.6199 35.8299L33.0499 35.9264C34.8179 36.3232 37.5371 36.5618 40.8667 36.6125C43.8484 36.6579 45.911 36.5566 48.2538 36.2498C49.3531 36.1058 50.636 35.8844 50.6914 35.829C50.7234 35.7969 48.9808 35.4897 48.1755 35.3854C46.2131 35.1312 41.578 34.9475 39.5378 35.0431ZM30.0394 47.5036C30.0394 54.06 30.0486 56.7422 30.0599 53.464C30.0712 50.1858 30.0712 44.8215 30.0599 41.5433C30.0486 38.2651 30.0394 40.9472 30.0394 47.5036ZM31.6428 48.0659V58.8849L31.8969 58.9741C32.3267 59.125 33.0543 59.2927 33.8315 59.42C34.24 59.4869 34.6708 59.5584 34.7891 59.5788L35.0041 59.6159V48.7929V37.9701L34.8282 37.9333C34.7314 37.9131 34.3006 37.8403 33.8706 37.7713C33.1556 37.6568 32.0689 37.4104 31.7663 37.2942C31.6542 37.2512 31.6428 38.2417 31.6428 48.0659ZM51.0677 37.4275C49.1383 38.043 43.9838 38.4272 39.6372 38.2794C38.5095 38.2411 37.3752 38.1858 37.1163 38.1565L36.6456 38.1032V48.932V59.7608L37.0951 59.8099C37.9336 59.9016 40.509 60.0092 41.8438 60.0084C45.2543 60.0064 49.4865 59.5795 51.1308 59.0716L51.654 58.9101V57.6931C51.654 56.5644 51.644 56.4805 51.5172 56.534C51.442 56.5658 50.9055 56.6088 50.3251 56.6295C48.8687 56.6815 47.9531 56.5085 46.6121 55.9278C44.456 54.9942 42.6596 52.9238 42.0063 50.6197C41.6295 49.2903 41.6094 47.4898 41.9572 46.2138C42.9921 42.4173 46.5627 39.8045 50.4033 40.0329C50.8547 40.0598 51.3208 40.1024 51.439 40.1278L51.654 40.1741V38.7188C51.654 37.9184 51.6276 37.2668 51.5953 37.2707C51.563 37.2746 51.3256 37.3453 51.0677 37.4275ZM49.2056 41.721C47.6617 41.9081 46.2361 42.6524 45.1195 43.8541C44.2528 44.7868 43.7296 45.8057 43.4768 47.0535C43.3069 47.8922 43.3631 49.334 43.5974 50.147C44.2294 52.339 45.9529 54.0692 48.1755 54.7429C48.8024 54.9329 49.0022 54.9562 50.0124 54.9562C51.0226 54.9562 51.2224 54.9329 51.8494 54.7429C54.0719 54.0692 55.7955 52.339 56.4274 50.147C56.6617 49.334 56.7179 47.8922 56.548 47.0535C56.2952 45.8057 55.772 44.7868 54.9054 43.8541C53.4167 42.252 51.3147 41.4653 49.2056 41.721ZM49.5175 43.5207C49.2168 43.7572 49.1535 44.1175 49.153 45.5935L49.1526 46.9273L48.9109 47.1569C48.1818 47.8495 48.196 48.9355 48.9428 49.5911C49.9954 50.5154 51.6457 49.7538 51.6522 48.3409C51.6542 47.9073 51.4645 47.4899 51.114 47.1569L50.8723 46.9273L50.8718 45.5935C50.8716 44.8599 50.8352 44.1295 50.791 43.9701C50.6869 43.5955 50.3871 43.3607 50.0124 43.3607C49.837 43.3607 49.6398 43.4245 49.5175 43.5207Z" stroke="#24A5E0" stroke-width="0.6" stroke-linejoin="round" mask="url(#path-2-outside-1_2009_123)"/>
</svg>
