<svg width="100" height="100" viewBox="0 0 100 100" fill="none" xmlns="http://www.w3.org/2000/svg">
<rect width="100" height="100" rx="50" fill="#24A5E0" fill-opacity="0.1"/>
<mask id="path-2-outside-1_2009_128" maskUnits="userSpaceOnUse" x="29" y="29" width="41" height="42" fill="black">
<rect fill="white" x="29" y="29" width="41" height="42"/>
<path fill-rule="evenodd" clip-rule="evenodd" d="M51.9558 30.3391C51.4933 30.8294 51.2809 31.4288 51.2749 32.2608C51.268 33.2208 51.5072 33.7022 52.5244 34.7749L53.2981 35.5908L45.0334 43.9856C37.2653 51.8761 36.7687 52.3966 36.7687 52.6495C36.7687 52.8944 36.9001 53.0527 38.2302 54.4103C39.0341 55.2307 39.6914 55.936 39.6911 55.9776C39.6908 56.0192 39.0331 56.7193 38.2296 57.5334C36.443 59.3437 36.4849 59.2077 37.4226 60.1553C37.7822 60.5187 38.0764 60.8515 38.0764 60.8948C38.0764 60.9383 36.2591 62.8209 34.038 65.0785C29.6621 69.5265 29.7746 69.3883 30.1885 69.8086C30.6022 70.2289 30.4661 70.3432 34.845 65.8983C37.0676 63.6421 38.9209 61.7961 38.9637 61.7961C39.0064 61.7961 39.334 62.095 39.6917 62.4603C40.646 63.4346 40.5208 63.4739 42.3575 61.6238L43.8472 60.1232L45.3315 61.6238C46.6831 62.9901 46.8397 63.1244 47.0808 63.1244C47.3298 63.1244 47.8423 62.62 55.6101 54.7293L63.8745 46.3341L64.6777 47.12C65.7338 48.1533 66.2077 48.3963 67.1527 48.3893C67.9718 48.3832 68.5619 48.1674 69.0445 47.6976C69.6359 47.1221 69.7444 47.2836 66.6561 44.1399L63.9286 41.3636L65.7973 39.4493C67.5587 37.6448 67.6843 37.4968 67.9852 36.8708C68.4939 35.8121 68.5624 34.9136 68.2209 33.7788C67.6678 31.9414 65.7192 30.7099 63.8348 31.0069C62.5798 31.2047 62.1118 31.5462 59.6351 34.0715C58.0931 35.6437 57.6838 36.104 57.6434 36.3113C57.5928 36.5705 57.6264 36.6067 62.7688 41.8325L67.9452 47.0927L67.6451 47.1774C67.238 47.2922 67.0022 47.2845 66.6048 47.1434C66.3189 47.042 65.239 45.9789 59.4424 40.093C53.5505 34.1101 52.6009 33.1144 52.5003 32.8146C52.3626 32.404 52.3553 32.1726 52.4677 31.7617L52.5507 31.4578L54.4515 33.383C56.5148 35.4726 56.5735 35.5131 56.9641 35.1163C57.3625 34.7117 57.3422 34.6828 54.94 32.2427C52.4213 29.6844 52.5163 29.7449 51.9558 30.3391ZM63.6931 32.2298C63.4615 32.293 63.1154 32.4371 62.9239 32.55C62.5597 32.7648 59.076 36.2127 59.076 36.3584C59.076 36.4679 63.0132 40.465 63.1211 40.465C63.1665 40.465 63.9993 39.6475 64.9718 38.6484C66.861 36.7074 67.0603 36.4331 67.2381 35.5294C67.4094 34.6591 67.0952 33.6815 66.425 32.9992C65.983 32.5493 65.5221 32.2983 64.9281 32.1838C64.3997 32.082 64.2083 32.0892 63.6931 32.2298ZM46.1335 44.509L38.1532 52.6156L42.6341 57.1667L47.1151 61.7179L55.0961 53.6105L63.0771 45.5032L62.2684 44.6845L61.4595 43.8658L58.7692 46.5978L56.0788 49.3298L56.3466 49.6084C56.5483 49.8181 56.6145 49.954 56.6145 50.158C56.6145 50.4123 56.3271 50.7208 51.9785 55.1359C47.9315 59.2448 47.3134 59.8427 47.1141 59.8427C46.9157 59.8427 46.4356 59.3854 43.4426 56.3452C40.4496 53.305 39.9994 52.8173 39.9994 52.6157C39.9994 52.4133 40.5881 51.7854 44.6331 47.6746C48.9796 43.2573 49.2833 42.9654 49.5336 42.9654C49.7345 42.9654 49.8682 43.0326 50.0747 43.2375L50.349 43.5095L53.039 40.7762L55.729 38.0428L54.9215 37.2226L54.1139 36.4023L46.1335 44.509ZM53.8642 41.5789C52.4153 43.051 51.23 44.2907 51.23 44.3338C51.23 44.4358 55.1687 48.4349 55.2694 48.4349C55.3116 48.4349 56.5399 47.2218 57.999 45.7393L60.6519 43.0437L58.6145 40.973C57.4939 39.8341 56.5594 38.9023 56.5377 38.9023C56.516 38.9023 55.3129 40.1068 53.8642 41.5789ZM49.1132 44.7639L48.7331 45.156L51.5965 48.0646L54.4599 50.9732L54.8634 50.5633L55.267 50.1533L52.422 47.2626C50.8572 45.6726 49.5582 44.3718 49.5352 44.3718C49.5122 44.3718 49.3224 44.5483 49.1132 44.7639ZM45.8631 48.0654L43.8434 50.118L44.2644 50.5404L44.6854 50.9627L46.6885 48.9099C47.7902 47.7808 48.6916 46.8328 48.6916 46.8031C48.6916 46.7436 47.9773 46.0127 47.9192 46.0127C47.8992 46.0127 46.9739 46.9364 45.8631 48.0654ZM47.537 49.7249L45.5008 51.7943L45.9042 52.2042L46.3078 52.6141L48.347 50.5426L50.3863 48.4711L49.9798 48.0633L49.5732 47.6554L47.537 49.7249ZM49.1523 51.3658L47.1161 53.4352L47.5196 53.845L47.9231 54.2549L49.9624 52.1835L52.0017 50.1119L51.5951 49.7041L51.1886 49.2963L49.1523 51.3658ZM42.1715 51.8151L41.3849 52.6169L44.2506 55.5271L47.1164 58.4373L47.9223 57.6159L48.7283 56.7944L45.8835 53.9039C44.3188 52.3141 43.0205 51.0134 42.9984 51.0134C42.9763 51.0134 42.6042 51.3741 42.1715 51.8151ZM50.7861 53.0661L48.7664 55.1187L49.1727 55.5264L49.5791 55.9341L51.6144 53.8656L53.6495 51.7972L53.2696 51.4052C53.0606 51.1897 52.8707 51.0134 52.8477 51.0134C52.8246 51.0134 51.8969 51.9371 50.7861 53.0661ZM40.1715 57.2064L39.7702 57.6192L40.9827 58.8491L42.1952 60.0789L42.5965 59.6661L42.9978 59.2534L41.7853 58.0235L40.5728 56.7936L40.1715 57.2064ZM38.5561 58.8473L38.1548 59.2601L39.3674 60.4899L40.5799 61.7198L40.9812 61.307L41.3825 60.8942L40.17 59.6643L38.9574 58.4345L38.5561 58.8473Z"/>
</mask>
<path fill-rule="evenodd" clip-rule="evenodd" d="M51.9558 30.3391C51.4933 30.8294 51.2809 31.4288 51.2749 32.2608C51.268 33.2208 51.5072 33.7022 52.5244 34.7749L53.2981 35.5908L45.0334 43.9856C37.2653 51.8761 36.7687 52.3966 36.7687 52.6495C36.7687 52.8944 36.9001 53.0527 38.2302 54.4103C39.0341 55.2307 39.6914 55.936 39.6911 55.9776C39.6908 56.0192 39.0331 56.7193 38.2296 57.5334C36.443 59.3437 36.4849 59.2077 37.4226 60.1553C37.7822 60.5187 38.0764 60.8515 38.0764 60.8948C38.0764 60.9383 36.2591 62.8209 34.038 65.0785C29.6621 69.5265 29.7746 69.3883 30.1885 69.8086C30.6022 70.2289 30.4661 70.3432 34.845 65.8983C37.0676 63.6421 38.9209 61.7961 38.9637 61.7961C39.0064 61.7961 39.334 62.095 39.6917 62.4603C40.646 63.4346 40.5208 63.4739 42.3575 61.6238L43.8472 60.1232L45.3315 61.6238C46.6831 62.9901 46.8397 63.1244 47.0808 63.1244C47.3298 63.1244 47.8423 62.62 55.6101 54.7293L63.8745 46.3341L64.6777 47.12C65.7338 48.1533 66.2077 48.3963 67.1527 48.3893C67.9718 48.3832 68.5619 48.1674 69.0445 47.6976C69.6359 47.1221 69.7444 47.2836 66.6561 44.1399L63.9286 41.3636L65.7973 39.4493C67.5587 37.6448 67.6843 37.4968 67.9852 36.8708C68.4939 35.8121 68.5624 34.9136 68.2209 33.7788C67.6678 31.9414 65.7192 30.7099 63.8348 31.0069C62.5798 31.2047 62.1118 31.5462 59.6351 34.0715C58.0931 35.6437 57.6838 36.104 57.6434 36.3113C57.5928 36.5705 57.6264 36.6067 62.7688 41.8325L67.9452 47.0927L67.6451 47.1774C67.238 47.2922 67.0022 47.2845 66.6048 47.1434C66.3189 47.042 65.239 45.9789 59.4424 40.093C53.5505 34.1101 52.6009 33.1144 52.5003 32.8146C52.3626 32.404 52.3553 32.1726 52.4677 31.7617L52.5507 31.4578L54.4515 33.383C56.5148 35.4726 56.5735 35.5131 56.9641 35.1163C57.3625 34.7117 57.3422 34.6828 54.94 32.2427C52.4213 29.6844 52.5163 29.7449 51.9558 30.3391ZM63.6931 32.2298C63.4615 32.293 63.1154 32.4371 62.9239 32.55C62.5597 32.7648 59.076 36.2127 59.076 36.3584C59.076 36.4679 63.0132 40.465 63.1211 40.465C63.1665 40.465 63.9993 39.6475 64.9718 38.6484C66.861 36.7074 67.0603 36.4331 67.2381 35.5294C67.4094 34.6591 67.0952 33.6815 66.425 32.9992C65.983 32.5493 65.5221 32.2983 64.9281 32.1838C64.3997 32.082 64.2083 32.0892 63.6931 32.2298ZM46.1335 44.509L38.1532 52.6156L42.6341 57.1667L47.1151 61.7179L55.0961 53.6105L63.0771 45.5032L62.2684 44.6845L61.4595 43.8658L58.7692 46.5978L56.0788 49.3298L56.3466 49.6084C56.5483 49.8181 56.6145 49.954 56.6145 50.158C56.6145 50.4123 56.3271 50.7208 51.9785 55.1359C47.9315 59.2448 47.3134 59.8427 47.1141 59.8427C46.9157 59.8427 46.4356 59.3854 43.4426 56.3452C40.4496 53.305 39.9994 52.8173 39.9994 52.6157C39.9994 52.4133 40.5881 51.7854 44.6331 47.6746C48.9796 43.2573 49.2833 42.9654 49.5336 42.9654C49.7345 42.9654 49.8682 43.0326 50.0747 43.2375L50.349 43.5095L53.039 40.7762L55.729 38.0428L54.9215 37.2226L54.1139 36.4023L46.1335 44.509ZM53.8642 41.5789C52.4153 43.051 51.23 44.2907 51.23 44.3338C51.23 44.4358 55.1687 48.4349 55.2694 48.4349C55.3116 48.4349 56.5399 47.2218 57.999 45.7393L60.6519 43.0437L58.6145 40.973C57.4939 39.8341 56.5594 38.9023 56.5377 38.9023C56.516 38.9023 55.3129 40.1068 53.8642 41.5789ZM49.1132 44.7639L48.7331 45.156L51.5965 48.0646L54.4599 50.9732L54.8634 50.5633L55.267 50.1533L52.422 47.2626C50.8572 45.6726 49.5582 44.3718 49.5352 44.3718C49.5122 44.3718 49.3224 44.5483 49.1132 44.7639ZM45.8631 48.0654L43.8434 50.118L44.2644 50.5404L44.6854 50.9627L46.6885 48.9099C47.7902 47.7808 48.6916 46.8328 48.6916 46.8031C48.6916 46.7436 47.9773 46.0127 47.9192 46.0127C47.8992 46.0127 46.9739 46.9364 45.8631 48.0654ZM47.537 49.7249L45.5008 51.7943L45.9042 52.2042L46.3078 52.6141L48.347 50.5426L50.3863 48.4711L49.9798 48.0633L49.5732 47.6554L47.537 49.7249ZM49.1523 51.3658L47.1161 53.4352L47.5196 53.845L47.9231 54.2549L49.9624 52.1835L52.0017 50.1119L51.5951 49.7041L51.1886 49.2963L49.1523 51.3658ZM42.1715 51.8151L41.3849 52.6169L44.2506 55.5271L47.1164 58.4373L47.9223 57.6159L48.7283 56.7944L45.8835 53.9039C44.3188 52.3141 43.0205 51.0134 42.9984 51.0134C42.9763 51.0134 42.6042 51.3741 42.1715 51.8151ZM50.7861 53.0661L48.7664 55.1187L49.1727 55.5264L49.5791 55.9341L51.6144 53.8656L53.6495 51.7972L53.2696 51.4052C53.0606 51.1897 52.8707 51.0134 52.8477 51.0134C52.8246 51.0134 51.8969 51.9371 50.7861 53.0661ZM40.1715 57.2064L39.7702 57.6192L40.9827 58.8491L42.1952 60.0789L42.5965 59.6661L42.9978 59.2534L41.7853 58.0235L40.5728 56.7936L40.1715 57.2064ZM38.5561 58.8473L38.1548 59.2601L39.3674 60.4899L40.5799 61.7198L40.9812 61.307L41.3825 60.8942L40.17 59.6643L38.9574 58.4345L38.5561 58.8473Z" fill="#24A5E0"/>
<path fill-rule="evenodd" clip-rule="evenodd" d="M51.9558 30.3391C51.4933 30.8294 51.2809 31.4288 51.2749 32.2608C51.268 33.2208 51.5072 33.7022 52.5244 34.7749L53.2981 35.5908L45.0334 43.9856C37.2653 51.8761 36.7687 52.3966 36.7687 52.6495C36.7687 52.8944 36.9001 53.0527 38.2302 54.4103C39.0341 55.2307 39.6914 55.936 39.6911 55.9776C39.6908 56.0192 39.0331 56.7193 38.2296 57.5334C36.443 59.3437 36.4849 59.2077 37.4226 60.1553C37.7822 60.5187 38.0764 60.8515 38.0764 60.8948C38.0764 60.9383 36.2591 62.8209 34.038 65.0785C29.6621 69.5265 29.7746 69.3883 30.1885 69.8086C30.6022 70.2289 30.4661 70.3432 34.845 65.8983C37.0676 63.6421 38.9209 61.7961 38.9637 61.7961C39.0064 61.7961 39.334 62.095 39.6917 62.4603C40.646 63.4346 40.5208 63.4739 42.3575 61.6238L43.8472 60.1232L45.3315 61.6238C46.6831 62.9901 46.8397 63.1244 47.0808 63.1244C47.3298 63.1244 47.8423 62.62 55.6101 54.7293L63.8745 46.3341L64.6777 47.12C65.7338 48.1533 66.2077 48.3963 67.1527 48.3893C67.9718 48.3832 68.5619 48.1674 69.0445 47.6976C69.6359 47.1221 69.7444 47.2836 66.6561 44.1399L63.9286 41.3636L65.7973 39.4493C67.5587 37.6448 67.6843 37.4968 67.9852 36.8708C68.4939 35.8121 68.5624 34.9136 68.2209 33.7788C67.6678 31.9414 65.7192 30.7099 63.8348 31.0069C62.5798 31.2047 62.1118 31.5462 59.6351 34.0715C58.0931 35.6437 57.6838 36.104 57.6434 36.3113C57.5928 36.5705 57.6264 36.6067 62.7688 41.8325L67.9452 47.0927L67.6451 47.1774C67.238 47.2922 67.0022 47.2845 66.6048 47.1434C66.3189 47.042 65.239 45.9789 59.4424 40.093C53.5505 34.1101 52.6009 33.1144 52.5003 32.8146C52.3626 32.404 52.3553 32.1726 52.4677 31.7617L52.5507 31.4578L54.4515 33.383C56.5148 35.4726 56.5735 35.5131 56.9641 35.1163C57.3625 34.7117 57.3422 34.6828 54.94 32.2427C52.4213 29.6844 52.5163 29.7449 51.9558 30.3391ZM63.6931 32.2298C63.4615 32.293 63.1154 32.4371 62.9239 32.55C62.5597 32.7648 59.076 36.2127 59.076 36.3584C59.076 36.4679 63.0132 40.465 63.1211 40.465C63.1665 40.465 63.9993 39.6475 64.9718 38.6484C66.861 36.7074 67.0603 36.4331 67.2381 35.5294C67.4094 34.6591 67.0952 33.6815 66.425 32.9992C65.983 32.5493 65.5221 32.2983 64.9281 32.1838C64.3997 32.082 64.2083 32.0892 63.6931 32.2298ZM46.1335 44.509L38.1532 52.6156L42.6341 57.1667L47.1151 61.7179L55.0961 53.6105L63.0771 45.5032L62.2684 44.6845L61.4595 43.8658L58.7692 46.5978L56.0788 49.3298L56.3466 49.6084C56.5483 49.8181 56.6145 49.954 56.6145 50.158C56.6145 50.4123 56.3271 50.7208 51.9785 55.1359C47.9315 59.2448 47.3134 59.8427 47.1141 59.8427C46.9157 59.8427 46.4356 59.3854 43.4426 56.3452C40.4496 53.305 39.9994 52.8173 39.9994 52.6157C39.9994 52.4133 40.5881 51.7854 44.6331 47.6746C48.9796 43.2573 49.2833 42.9654 49.5336 42.9654C49.7345 42.9654 49.8682 43.0326 50.0747 43.2375L50.349 43.5095L53.039 40.7762L55.729 38.0428L54.9215 37.2226L54.1139 36.4023L46.1335 44.509ZM53.8642 41.5789C52.4153 43.051 51.23 44.2907 51.23 44.3338C51.23 44.4358 55.1687 48.4349 55.2694 48.4349C55.3116 48.4349 56.5399 47.2218 57.999 45.7393L60.6519 43.0437L58.6145 40.973C57.4939 39.8341 56.5594 38.9023 56.5377 38.9023C56.516 38.9023 55.3129 40.1068 53.8642 41.5789ZM49.1132 44.7639L48.7331 45.156L51.5965 48.0646L54.4599 50.9732L54.8634 50.5633L55.267 50.1533L52.422 47.2626C50.8572 45.6726 49.5582 44.3718 49.5352 44.3718C49.5122 44.3718 49.3224 44.5483 49.1132 44.7639ZM45.8631 48.0654L43.8434 50.118L44.2644 50.5404L44.6854 50.9627L46.6885 48.9099C47.7902 47.7808 48.6916 46.8328 48.6916 46.8031C48.6916 46.7436 47.9773 46.0127 47.9192 46.0127C47.8992 46.0127 46.9739 46.9364 45.8631 48.0654ZM47.537 49.7249L45.5008 51.7943L45.9042 52.2042L46.3078 52.6141L48.347 50.5426L50.3863 48.4711L49.9798 48.0633L49.5732 47.6554L47.537 49.7249ZM49.1523 51.3658L47.1161 53.4352L47.5196 53.845L47.9231 54.2549L49.9624 52.1835L52.0017 50.1119L51.5951 49.7041L51.1886 49.2963L49.1523 51.3658ZM42.1715 51.8151L41.3849 52.6169L44.2506 55.5271L47.1164 58.4373L47.9223 57.6159L48.7283 56.7944L45.8835 53.9039C44.3188 52.3141 43.0205 51.0134 42.9984 51.0134C42.9763 51.0134 42.6042 51.3741 42.1715 51.8151ZM50.7861 53.0661L48.7664 55.1187L49.1727 55.5264L49.5791 55.9341L51.6144 53.8656L53.6495 51.7972L53.2696 51.4052C53.0606 51.1897 52.8707 51.0134 52.8477 51.0134C52.8246 51.0134 51.8969 51.9371 50.7861 53.0661ZM40.1715 57.2064L39.7702 57.6192L40.9827 58.8491L42.1952 60.0789L42.5965 59.6661L42.9978 59.2534L41.7853 58.0235L40.5728 56.7936L40.1715 57.2064ZM38.5561 58.8473L38.1548 59.2601L39.3674 60.4899L40.5799 61.7198L40.9812 61.307L41.3825 60.8942L40.17 59.6643L38.9574 58.4345L38.5561 58.8473Z" stroke="#24A5E0" stroke-width="0.6" stroke-linejoin="round" mask="url(#path-2-outside-1_2009_128)"/>
</svg>
