<svg width="100" height="100" viewBox="0 0 100 100" fill="none" xmlns="http://www.w3.org/2000/svg">
<rect width="100" height="100" rx="50" fill="#24A5E0" fill-opacity="0.1"/>
<path d="M69.5704 38.4901L68.9735 37.8974C66.4852 35.4266 63.9968 32.9557 61.5061 30.4849C61.3791 30.3611 61.2809 30.2731 61.1852 30.204C60.7688 29.8993 60.212 29.9398 59.8908 30.2992C59.5553 30.6706 59.5639 31.2205 59.9094 31.6037C60.1589 31.8822 60.3747 32.0988 60.5855 32.2821C60.6836 32.3654 60.983 32.6225 60.9977 33.0224C61.0148 33.4247 60.7311 33.7032 60.6389 33.7936C59.4685 34.9457 58.2841 36.1359 57.1165 37.338C56.9628 37.4951 56.7215 37.7022 56.3763 37.7022C56.1834 37.7022 56.0211 37.6355 55.892 37.5546C55.7652 37.4737 55.6741 37.3785 55.6238 37.3285C54.9069 36.5977 54.1638 35.8645 53.4446 35.1552L52.8909 34.6077C52.4881 34.2078 52.1692 34.2126 51.9386 34.2578C51.5796 34.3316 51.3169 34.5553 51.2144 34.8767C51.1049 35.2195 51.2052 35.6051 51.4859 35.9098C52.0184 36.4858 52.596 37.0428 53.1928 37.6117C53.291 37.7046 53.5858 37.9878 53.5721 38.4092C53.5645 38.6853 53.4258 38.9352 53.1631 39.1542C53.1086 39.1971 53.0495 39.2613 52.9881 39.328C52.9503 39.3661 52.9125 39.4065 52.8746 39.4446L48.5083 43.8412C45.0143 47.3593 41.5203 50.8751 38.0287 54.3957C36.0879 56.3524 35.637 58.5923 36.7266 60.8775C37.0068 61.4654 36.9245 61.9486 36.4706 62.4009C35.3689 63.4982 34.2743 64.6004 33.1798 65.7025C32.4281 66.4618 31.6739 67.2188 30.9198 67.9733C30.6172 68.278 30.4166 68.5256 30.2707 68.7731L30.273 69.1088C30.2751 69.4016 30.2772 69.6991 30.2793 69.999C30.415 69.999 30.5483 69.999 30.6816 69.999C30.8459 69.999 31.0101 69.999 31.1696 69.999H31.5219C31.714 69.8943 31.9082 69.7419 32.1351 69.5134C32.7994 68.8398 33.4684 68.1685 34.1351 67.4973C35.3383 66.2857 36.5842 65.0336 37.7992 63.7934C38.1088 63.4744 38.618 63.0983 39.4208 63.5125C40.4195 64.0267 41.5226 64.16 42.7898 63.9196C43.8858 63.7125 44.846 63.1459 45.898 62.0819C48.0634 59.8967 50.2312 57.7139 52.3989 55.5288C55.2357 52.6747 58.0702 49.8183 60.8998 46.9571C61.1078 46.7476 61.3919 46.5143 61.7847 46.5191C62.1776 46.5286 62.4507 46.7809 62.6235 46.9713C63.0217 47.4093 63.4627 47.8354 63.8893 48.2472L64.1985 48.5448C64.606 48.9399 64.932 48.9161 65.1696 48.8518C65.5165 48.7566 65.7624 48.5186 65.8506 48.1996C65.9434 47.8497 65.8337 47.4784 65.5459 47.1808C64.7187 46.3263 63.8533 45.4789 63.0144 44.66L62.7483 44.3982C62.6429 44.2934 62.3912 44.0483 62.3886 43.6793C62.386 43.3103 62.6343 43.0628 62.717 42.9818C64.0221 41.6893 65.2821 40.4134 66.341 39.3351C66.4214 39.2542 66.6578 39.0138 67.0173 39.0138H67.0316C67.272 39.0185 67.4966 39.1304 67.7005 39.347C67.9451 39.6112 68.2137 39.8874 68.4915 40.1254C68.9441 40.5086 69.2863 40.4134 69.533 40.2873C69.9172 40.0897 70.0818 39.7969 70.0644 39.3399C70.0553 39.0685 69.9204 38.8376 69.5704 38.4901ZM59.6114 45.5241C59.2022 45.9049 58.7672 46.3405 58.2875 46.8547C58.1978 46.9523 57.926 47.2427 57.5189 47.2427H57.5023C57.2308 47.2379 56.9776 47.1046 56.7544 46.8499C56.5864 46.6548 56.3923 46.4691 56.1815 46.2953C55.7793 45.9621 55.1937 45.9764 54.8534 46.331C54.5154 46.6809 54.5074 47.2427 54.8387 47.6355C55.0332 47.8664 55.2608 48.083 55.4837 48.2925C55.697 48.4972 55.8081 48.7257 55.8122 48.9709C55.8139 49.2184 55.7084 49.4517 55.4956 49.6612C54.8927 50.2586 54.2946 50.8585 53.7226 51.4464C53.517 51.6583 53.2892 51.763 53.0464 51.763H53.0368C52.7892 51.7606 52.5575 51.6488 52.3537 51.4322C52.193 51.2631 51.9796 51.0442 51.752 50.8442C51.3352 50.4776 50.7496 50.4705 50.3878 50.8252C50.0213 51.1894 50.0327 51.7868 50.4142 52.2177L50.4669 52.2724C51.4743 53.3436 51.4721 53.7125 50.4508 54.7385C50.3374 54.8527 50.2215 54.967 50.108 55.0813C49.8432 55.3455 49.5666 55.6168 49.3114 55.8906C49.224 55.9858 48.9642 56.2786 48.5499 56.2667C48.2832 56.2619 48.0347 56.1358 47.8164 55.8882C47.6364 55.6883 47.4423 55.4978 47.2363 55.3264C46.8292 54.9813 46.2555 54.9884 45.9057 55.3407C45.5511 55.6954 45.5479 56.2667 45.8935 56.6713C46.0664 56.8737 46.2653 57.0665 46.4738 57.2688L46.5457 57.3355C46.7494 57.533 46.8533 57.7544 46.855 57.9948C46.8567 58.2376 46.7583 58.4614 46.555 58.6637C46.2642 58.9517 45.9781 59.2398 45.6921 59.5302C45.1389 60.0872 44.5692 60.6632 43.9874 61.2131C43.3773 61.7939 42.6364 62.0629 41.6556 62.0629H41.6389C40.151 62.0605 38.9002 61.2393 38.3744 59.9229C37.7953 58.4733 38.0574 57.1331 39.133 56.0429C41.4141 53.734 43.7001 51.4322 45.9885 49.1303L50.1231 44.9695C51.5605 43.527 53.0451 42.0321 54.4941 40.5539C54.669 40.373 54.9458 40.1349 55.3244 40.1349H55.3291C55.7029 40.1373 55.9735 40.3634 56.1677 40.5634C57.3905 41.8107 58.6442 43.0414 59.603 43.9745C59.7708 44.1411 59.9964 44.4029 59.9941 44.7671C59.9898 45.1718 59.706 45.436 59.6114 45.5241ZM65.0196 37.9498C64.2182 38.7519 63.4216 39.5541 62.6225 40.3587L61.2963 41.6917C61.2207 41.7702 61.1425 41.8226 61.0927 41.8583L60.9222 41.9821L60.7294 41.9916H60.7056C60.3223 41.9916 60.1041 41.7679 60.0106 41.6726L59.9915 41.6536C59.8045 41.4679 59.6199 41.2823 59.4329 41.0966C59.0973 40.7633 58.764 40.4301 58.4237 40.1016C58.3422 40.0254 58.0978 39.7898 58.0952 39.4256C58.0935 39.1828 58.1967 38.9566 58.4024 38.7496C59.627 37.5284 60.8563 36.2906 62.0547 35.0719C62.258 34.8648 62.4834 34.7601 62.7239 34.7601H62.7263C63.0905 34.7601 63.3303 35.0052 63.407 35.0862C63.901 35.5908 64.4067 36.0859 64.9676 36.6358C65.0683 36.7334 65.3008 36.9619 65.3033 37.3166C65.3049 37.5475 65.2088 37.7593 65.0196 37.9498Z" fill="#24A5E0"/>
</svg>
