<svg width="100" height="100" viewBox="0 0 100 100" fill="none" xmlns="http://www.w3.org/2000/svg">
<rect width="100" height="100" rx="50" fill="#24A5E0" fill-opacity="0.1"/>
<mask id="path-2-outside-1_2009_106" maskUnits="userSpaceOnUse" x="30.6177" y="29" width="39" height="42" fill="black">
<rect fill="white" x="30.6177" y="29" width="39" height="42"/>
<path fill-rule="evenodd" clip-rule="evenodd" d="M60.1688 30.0997C59.9931 30.1584 59.7595 30.2535 59.6497 30.3109C59.5399 30.3683 57.3466 32.543 54.7758 35.1438C49.7844 40.1932 49.9257 40.0708 49.496 39.7174L49.3074 39.5623V37.5914C49.3074 35.6385 49.3055 35.6165 49.1002 35.1751C48.2011 33.2421 45.6013 33.2374 44.7302 35.1672L44.5261 35.6193L44.5408 39.7098C44.5489 41.9596 44.5778 44.6932 44.6051 45.7845C44.6408 47.2141 44.628 47.8706 44.559 48.1332C44.4714 48.4665 43.9152 49.0539 38.0404 55.0183C32.4107 60.7339 31.6177 61.5688 31.6177 61.7799C31.6177 61.9899 32.1231 62.5334 35.5518 66.0104C38.9751 69.4818 39.5168 70 39.7228 70C39.9288 70 40.4715 69.4814 43.8952 66.012L47.8308 62.024L49.4812 63.6977L51.1316 65.3713L50.7346 65.8118C50.1549 66.4548 50.0146 67.0696 50.2723 67.8365C50.5101 68.544 51.2984 69.1091 52.0477 69.1091C52.7799 69.1091 52.8356 69.0652 55.4832 66.4022C56.8747 65.0025 58.0612 63.7416 58.1563 63.5614C58.3822 63.1333 58.3951 62.234 58.1813 61.8202C58.1007 61.6643 57.0265 60.5094 55.7942 59.2538C53.6165 57.0348 53.5601 56.9693 53.7865 56.9208C55.2345 56.6101 56.1933 56.1822 57.0941 55.4446C57.4235 55.1748 60.1956 52.408 63.2543 49.2962C68.5871 43.8707 68.8226 43.6184 68.9924 43.1524C69.343 42.1895 69.0758 41.1354 68.3071 40.4494C68.1011 40.2654 67.7938 40.0728 67.6245 40.0213C67.2922 39.9203 67.2551 39.863 67.4276 39.7178C67.6663 39.5169 67.9033 38.7899 67.9053 38.2526C67.9088 37.3036 67.2875 36.3347 66.4734 36.0194C66.2783 35.9438 66.1186 35.8568 66.1186 35.8261C66.1186 35.7954 66.2056 35.6874 66.3118 35.5862C66.8675 35.0568 67.0455 33.8306 66.6856 33.0105C66.4684 32.5154 65.9381 31.9888 65.4249 31.7586C64.9183 31.5313 64.1197 31.5335 63.6071 31.7634C63.3935 31.8592 63.2128 31.9279 63.2055 31.9163C63.198 31.9046 63.1309 31.7274 63.056 31.5226C62.6522 30.4163 61.2656 29.7329 60.1688 30.0997ZM60.3685 31.2155C60.2587 31.2592 58.0844 33.4031 55.5367 35.9798C52.9891 38.5564 50.7885 40.7239 50.6465 40.7963C49.7918 41.2322 48.7865 40.9076 48.3847 40.0659C48.2134 39.7072 48.2039 39.5887 48.1968 37.7352C48.1885 35.5817 48.1622 35.4494 47.6722 35.0956C46.9769 34.5934 45.9104 34.9428 45.6957 35.743C45.6485 35.9186 45.642 38.289 45.6785 42.0128C45.7257 46.8358 45.7168 48.072 45.6328 48.3703C45.5755 48.574 45.5079 48.8135 45.4827 48.9026C45.4455 49.0347 45.571 49.1617 46.1629 49.591C48.5546 51.3253 50.8663 53.5179 52.2082 55.3251L52.6474 55.9165L53.0937 55.8639C54.2695 55.7256 55.2341 55.3932 56.0309 54.8517C56.5758 54.4815 67.7863 43.1313 67.9236 42.8108C68.181 42.2105 67.9798 41.5847 67.4027 41.1904C67.1059 40.9876 66.5521 40.9422 66.2531 41.096C66.1572 41.1454 64.6232 42.6541 62.8442 44.4486C61.0653 46.2431 59.5246 47.7372 59.4205 47.7688C59.1443 47.8527 58.8182 47.5821 58.7852 47.2415C58.7603 46.9852 58.9352 46.7944 62.7123 42.9572C66.2077 39.4061 66.6757 38.9012 66.7545 38.5968C67.0332 37.5199 65.9451 36.5954 64.9766 37.0864C64.836 37.1577 62.9592 38.9981 60.8058 41.1763C57.687 44.331 56.8492 45.1366 56.6869 45.1366C56.4339 45.1366 56.1357 44.8276 56.1357 44.5654C56.1357 44.4139 57.2103 43.2784 60.8444 39.5898C64.1069 36.2785 65.5908 34.7181 65.6761 34.5095C65.8413 34.1056 65.8311 33.8354 65.6355 33.4257C65.3662 32.8613 64.7765 32.593 64.162 32.7549C63.8862 32.8276 63.192 33.4977 59.0884 37.6516C54.8173 41.9753 54.3088 42.464 54.0828 42.464C53.8006 42.464 53.5002 42.1569 53.5002 41.8684C53.5002 41.7535 54.863 40.3149 57.7672 37.3643C62.3782 32.6795 62.2251 32.8643 62.0913 32.1404C61.9547 31.4026 61.079 30.9324 60.3685 31.2155ZM42.7779 51.7581C41.779 52.7718 40.9628 53.6373 40.9642 53.6815C40.9656 53.7257 41.1903 53.9146 41.4634 54.1014C42.1781 54.59 43.6744 55.8161 44.7566 56.7998C45.7125 57.6688 46.6258 58.6468 47.4649 59.7003L47.9374 60.2935L49.8128 58.3917L51.6881 56.49L51.1417 55.7738C50.431 54.8424 48.6814 53.07 47.4705 52.0548C46.4367 51.1879 44.764 49.9149 44.6589 49.9149C44.6233 49.9149 43.7769 50.7443 42.7779 51.7581ZM38.1296 56.4719C37.0777 57.5392 36.2335 58.4258 36.2534 58.4421C36.2734 58.4583 36.7047 58.7819 37.2118 59.1613C39.33 60.7456 41.3767 62.6642 42.6094 64.2211L43.2589 65.0413L44.0288 64.2576L44.7986 63.474L44.2301 62.7483C43.9174 62.3492 43.144 61.4938 42.5113 60.8474C41.5302 59.8449 41.361 59.6353 41.361 59.4224C41.361 59.1096 41.5765 58.9046 41.9053 58.9046C42.1164 58.9046 42.2961 59.0397 43.0098 59.7347C43.7861 60.4909 44.9692 61.8181 45.4102 62.4276L45.5861 62.6706L46.3536 61.8957L47.1211 61.1207L46.7501 60.6203C45.7502 59.2714 44.1943 57.7163 42.3253 56.1978C41.3709 55.4223 40.1761 54.5313 40.0906 54.5313C40.0639 54.5313 39.1814 55.4046 38.1296 56.4719ZM50.4848 59.3304L48.6286 61.2139L50.9534 63.562C52.2319 64.8534 53.3761 66.0628 53.496 66.2495L53.714 66.5889L55.4951 64.7763L57.2761 62.9636L57.2308 62.6209C57.1882 62.2989 57.0425 62.1333 54.8042 59.8625C53.4946 58.5339 52.4046 57.4468 52.382 57.4468C52.3594 57.4468 51.5056 58.2945 50.4848 59.3304ZM34.1331 60.5247L32.9368 61.7399L36.3297 65.1813L39.7226 68.6227L41.0609 67.2673C41.797 66.5218 42.3983 65.875 42.3973 65.83C42.3932 65.656 41.1972 64.2425 40.2037 63.2375C38.8257 61.8437 35.7402 59.3096 35.421 59.3096C35.3706 59.3096 34.791 59.8564 34.1331 60.5247ZM51.7432 66.3336C51.2522 66.8822 51.1713 67.1535 51.3779 67.5586C51.7188 68.2272 52.7016 68.0256 52.7016 67.2871C52.7016 67.0532 52.6294 66.9182 52.3313 66.595C52.1276 66.3742 51.9389 66.1949 51.912 66.1966C51.8851 66.1983 51.8091 66.26 51.7432 66.3336Z"/>
</mask>
<path fill-rule="evenodd" clip-rule="evenodd" d="M60.1688 30.0997C59.9931 30.1584 59.7595 30.2535 59.6497 30.3109C59.5399 30.3683 57.3466 32.543 54.7758 35.1438C49.7844 40.1932 49.9257 40.0708 49.496 39.7174L49.3074 39.5623V37.5914C49.3074 35.6385 49.3055 35.6165 49.1002 35.1751C48.2011 33.2421 45.6013 33.2374 44.7302 35.1672L44.5261 35.6193L44.5408 39.7098C44.5489 41.9596 44.5778 44.6932 44.6051 45.7845C44.6408 47.2141 44.628 47.8706 44.559 48.1332C44.4714 48.4665 43.9152 49.0539 38.0404 55.0183C32.4107 60.7339 31.6177 61.5688 31.6177 61.7799C31.6177 61.9899 32.1231 62.5334 35.5518 66.0104C38.9751 69.4818 39.5168 70 39.7228 70C39.9288 70 40.4715 69.4814 43.8952 66.012L47.8308 62.024L49.4812 63.6977L51.1316 65.3713L50.7346 65.8118C50.1549 66.4548 50.0146 67.0696 50.2723 67.8365C50.5101 68.544 51.2984 69.1091 52.0477 69.1091C52.7799 69.1091 52.8356 69.0652 55.4832 66.4022C56.8747 65.0025 58.0612 63.7416 58.1563 63.5614C58.3822 63.1333 58.3951 62.234 58.1813 61.8202C58.1007 61.6643 57.0265 60.5094 55.7942 59.2538C53.6165 57.0348 53.5601 56.9693 53.7865 56.9208C55.2345 56.6101 56.1933 56.1822 57.0941 55.4446C57.4235 55.1748 60.1956 52.408 63.2543 49.2962C68.5871 43.8707 68.8226 43.6184 68.9924 43.1524C69.343 42.1895 69.0758 41.1354 68.3071 40.4494C68.1011 40.2654 67.7938 40.0728 67.6245 40.0213C67.2922 39.9203 67.2551 39.863 67.4276 39.7178C67.6663 39.5169 67.9033 38.7899 67.9053 38.2526C67.9088 37.3036 67.2875 36.3347 66.4734 36.0194C66.2783 35.9438 66.1186 35.8568 66.1186 35.8261C66.1186 35.7954 66.2056 35.6874 66.3118 35.5862C66.8675 35.0568 67.0455 33.8306 66.6856 33.0105C66.4684 32.5154 65.9381 31.9888 65.4249 31.7586C64.9183 31.5313 64.1197 31.5335 63.6071 31.7634C63.3935 31.8592 63.2128 31.9279 63.2055 31.9163C63.198 31.9046 63.1309 31.7274 63.056 31.5226C62.6522 30.4163 61.2656 29.7329 60.1688 30.0997ZM60.3685 31.2155C60.2587 31.2592 58.0844 33.4031 55.5367 35.9798C52.9891 38.5564 50.7885 40.7239 50.6465 40.7963C49.7918 41.2322 48.7865 40.9076 48.3847 40.0659C48.2134 39.7072 48.2039 39.5887 48.1968 37.7352C48.1885 35.5817 48.1622 35.4494 47.6722 35.0956C46.9769 34.5934 45.9104 34.9428 45.6957 35.743C45.6485 35.9186 45.642 38.289 45.6785 42.0128C45.7257 46.8358 45.7168 48.072 45.6328 48.3703C45.5755 48.574 45.5079 48.8135 45.4827 48.9026C45.4455 49.0347 45.571 49.1617 46.1629 49.591C48.5546 51.3253 50.8663 53.5179 52.2082 55.3251L52.6474 55.9165L53.0937 55.8639C54.2695 55.7256 55.2341 55.3932 56.0309 54.8517C56.5758 54.4815 67.7863 43.1313 67.9236 42.8108C68.181 42.2105 67.9798 41.5847 67.4027 41.1904C67.1059 40.9876 66.5521 40.9422 66.2531 41.096C66.1572 41.1454 64.6232 42.6541 62.8442 44.4486C61.0653 46.2431 59.5246 47.7372 59.4205 47.7688C59.1443 47.8527 58.8182 47.5821 58.7852 47.2415C58.7603 46.9852 58.9352 46.7944 62.7123 42.9572C66.2077 39.4061 66.6757 38.9012 66.7545 38.5968C67.0332 37.5199 65.9451 36.5954 64.9766 37.0864C64.836 37.1577 62.9592 38.9981 60.8058 41.1763C57.687 44.331 56.8492 45.1366 56.6869 45.1366C56.4339 45.1366 56.1357 44.8276 56.1357 44.5654C56.1357 44.4139 57.2103 43.2784 60.8444 39.5898C64.1069 36.2785 65.5908 34.7181 65.6761 34.5095C65.8413 34.1056 65.8311 33.8354 65.6355 33.4257C65.3662 32.8613 64.7765 32.593 64.162 32.7549C63.8862 32.8276 63.192 33.4977 59.0884 37.6516C54.8173 41.9753 54.3088 42.464 54.0828 42.464C53.8006 42.464 53.5002 42.1569 53.5002 41.8684C53.5002 41.7535 54.863 40.3149 57.7672 37.3643C62.3782 32.6795 62.2251 32.8643 62.0913 32.1404C61.9547 31.4026 61.079 30.9324 60.3685 31.2155ZM42.7779 51.7581C41.779 52.7718 40.9628 53.6373 40.9642 53.6815C40.9656 53.7257 41.1903 53.9146 41.4634 54.1014C42.1781 54.59 43.6744 55.8161 44.7566 56.7998C45.7125 57.6688 46.6258 58.6468 47.4649 59.7003L47.9374 60.2935L49.8128 58.3917L51.6881 56.49L51.1417 55.7738C50.431 54.8424 48.6814 53.07 47.4705 52.0548C46.4367 51.1879 44.764 49.9149 44.6589 49.9149C44.6233 49.9149 43.7769 50.7443 42.7779 51.7581ZM38.1296 56.4719C37.0777 57.5392 36.2335 58.4258 36.2534 58.4421C36.2734 58.4583 36.7047 58.7819 37.2118 59.1613C39.33 60.7456 41.3767 62.6642 42.6094 64.2211L43.2589 65.0413L44.0288 64.2576L44.7986 63.474L44.2301 62.7483C43.9174 62.3492 43.144 61.4938 42.5113 60.8474C41.5302 59.8449 41.361 59.6353 41.361 59.4224C41.361 59.1096 41.5765 58.9046 41.9053 58.9046C42.1164 58.9046 42.2961 59.0397 43.0098 59.7347C43.7861 60.4909 44.9692 61.8181 45.4102 62.4276L45.5861 62.6706L46.3536 61.8957L47.1211 61.1207L46.7501 60.6203C45.7502 59.2714 44.1943 57.7163 42.3253 56.1978C41.3709 55.4223 40.1761 54.5313 40.0906 54.5313C40.0639 54.5313 39.1814 55.4046 38.1296 56.4719ZM50.4848 59.3304L48.6286 61.2139L50.9534 63.562C52.2319 64.8534 53.3761 66.0628 53.496 66.2495L53.714 66.5889L55.4951 64.7763L57.2761 62.9636L57.2308 62.6209C57.1882 62.2989 57.0425 62.1333 54.8042 59.8625C53.4946 58.5339 52.4046 57.4468 52.382 57.4468C52.3594 57.4468 51.5056 58.2945 50.4848 59.3304ZM34.1331 60.5247L32.9368 61.7399L36.3297 65.1813L39.7226 68.6227L41.0609 67.2673C41.797 66.5218 42.3983 65.875 42.3973 65.83C42.3932 65.656 41.1972 64.2425 40.2037 63.2375C38.8257 61.8437 35.7402 59.3096 35.421 59.3096C35.3706 59.3096 34.791 59.8564 34.1331 60.5247ZM51.7432 66.3336C51.2522 66.8822 51.1713 67.1535 51.3779 67.5586C51.7188 68.2272 52.7016 68.0256 52.7016 67.2871C52.7016 67.0532 52.6294 66.9182 52.3313 66.595C52.1276 66.3742 51.9389 66.1949 51.912 66.1966C51.8851 66.1983 51.8091 66.26 51.7432 66.3336Z" fill="#24A5E0"/>
<path fill-rule="evenodd" clip-rule="evenodd" d="M60.1688 30.0997C59.9931 30.1584 59.7595 30.2535 59.6497 30.3109C59.5399 30.3683 57.3466 32.543 54.7758 35.1438C49.7844 40.1932 49.9257 40.0708 49.496 39.7174L49.3074 39.5623V37.5914C49.3074 35.6385 49.3055 35.6165 49.1002 35.1751C48.2011 33.2421 45.6013 33.2374 44.7302 35.1672L44.5261 35.6193L44.5408 39.7098C44.5489 41.9596 44.5778 44.6932 44.6051 45.7845C44.6408 47.2141 44.628 47.8706 44.559 48.1332C44.4714 48.4665 43.9152 49.0539 38.0404 55.0183C32.4107 60.7339 31.6177 61.5688 31.6177 61.7799C31.6177 61.9899 32.1231 62.5334 35.5518 66.0104C38.9751 69.4818 39.5168 70 39.7228 70C39.9288 70 40.4715 69.4814 43.8952 66.012L47.8308 62.024L49.4812 63.6977L51.1316 65.3713L50.7346 65.8118C50.1549 66.4548 50.0146 67.0696 50.2723 67.8365C50.5101 68.544 51.2984 69.1091 52.0477 69.1091C52.7799 69.1091 52.8356 69.0652 55.4832 66.4022C56.8747 65.0025 58.0612 63.7416 58.1563 63.5614C58.3822 63.1333 58.3951 62.234 58.1813 61.8202C58.1007 61.6643 57.0265 60.5094 55.7942 59.2538C53.6165 57.0348 53.5601 56.9693 53.7865 56.9208C55.2345 56.6101 56.1933 56.1822 57.0941 55.4446C57.4235 55.1748 60.1956 52.408 63.2543 49.2962C68.5871 43.8707 68.8226 43.6184 68.9924 43.1524C69.343 42.1895 69.0758 41.1354 68.3071 40.4494C68.1011 40.2654 67.7938 40.0728 67.6245 40.0213C67.2922 39.9203 67.2551 39.863 67.4276 39.7178C67.6663 39.5169 67.9033 38.7899 67.9053 38.2526C67.9088 37.3036 67.2875 36.3347 66.4734 36.0194C66.2783 35.9438 66.1186 35.8568 66.1186 35.8261C66.1186 35.7954 66.2056 35.6874 66.3118 35.5862C66.8675 35.0568 67.0455 33.8306 66.6856 33.0105C66.4684 32.5154 65.9381 31.9888 65.4249 31.7586C64.9183 31.5313 64.1197 31.5335 63.6071 31.7634C63.3935 31.8592 63.2128 31.9279 63.2055 31.9163C63.198 31.9046 63.1309 31.7274 63.056 31.5226C62.6522 30.4163 61.2656 29.7329 60.1688 30.0997ZM60.3685 31.2155C60.2587 31.2592 58.0844 33.4031 55.5367 35.9798C52.9891 38.5564 50.7885 40.7239 50.6465 40.7963C49.7918 41.2322 48.7865 40.9076 48.3847 40.0659C48.2134 39.7072 48.2039 39.5887 48.1968 37.7352C48.1885 35.5817 48.1622 35.4494 47.6722 35.0956C46.9769 34.5934 45.9104 34.9428 45.6957 35.743C45.6485 35.9186 45.642 38.289 45.6785 42.0128C45.7257 46.8358 45.7168 48.072 45.6328 48.3703C45.5755 48.574 45.5079 48.8135 45.4827 48.9026C45.4455 49.0347 45.571 49.1617 46.1629 49.591C48.5546 51.3253 50.8663 53.5179 52.2082 55.3251L52.6474 55.9165L53.0937 55.8639C54.2695 55.7256 55.2341 55.3932 56.0309 54.8517C56.5758 54.4815 67.7863 43.1313 67.9236 42.8108C68.181 42.2105 67.9798 41.5847 67.4027 41.1904C67.1059 40.9876 66.5521 40.9422 66.2531 41.096C66.1572 41.1454 64.6232 42.6541 62.8442 44.4486C61.0653 46.2431 59.5246 47.7372 59.4205 47.7688C59.1443 47.8527 58.8182 47.5821 58.7852 47.2415C58.7603 46.9852 58.9352 46.7944 62.7123 42.9572C66.2077 39.4061 66.6757 38.9012 66.7545 38.5968C67.0332 37.5199 65.9451 36.5954 64.9766 37.0864C64.836 37.1577 62.9592 38.9981 60.8058 41.1763C57.687 44.331 56.8492 45.1366 56.6869 45.1366C56.4339 45.1366 56.1357 44.8276 56.1357 44.5654C56.1357 44.4139 57.2103 43.2784 60.8444 39.5898C64.1069 36.2785 65.5908 34.7181 65.6761 34.5095C65.8413 34.1056 65.8311 33.8354 65.6355 33.4257C65.3662 32.8613 64.7765 32.593 64.162 32.7549C63.8862 32.8276 63.192 33.4977 59.0884 37.6516C54.8173 41.9753 54.3088 42.464 54.0828 42.464C53.8006 42.464 53.5002 42.1569 53.5002 41.8684C53.5002 41.7535 54.863 40.3149 57.7672 37.3643C62.3782 32.6795 62.2251 32.8643 62.0913 32.1404C61.9547 31.4026 61.079 30.9324 60.3685 31.2155ZM42.7779 51.7581C41.779 52.7718 40.9628 53.6373 40.9642 53.6815C40.9656 53.7257 41.1903 53.9146 41.4634 54.1014C42.1781 54.59 43.6744 55.8161 44.7566 56.7998C45.7125 57.6688 46.6258 58.6468 47.4649 59.7003L47.9374 60.2935L49.8128 58.3917L51.6881 56.49L51.1417 55.7738C50.431 54.8424 48.6814 53.07 47.4705 52.0548C46.4367 51.1879 44.764 49.9149 44.6589 49.9149C44.6233 49.9149 43.7769 50.7443 42.7779 51.7581ZM38.1296 56.4719C37.0777 57.5392 36.2335 58.4258 36.2534 58.4421C36.2734 58.4583 36.7047 58.7819 37.2118 59.1613C39.33 60.7456 41.3767 62.6642 42.6094 64.2211L43.2589 65.0413L44.0288 64.2576L44.7986 63.474L44.2301 62.7483C43.9174 62.3492 43.144 61.4938 42.5113 60.8474C41.5302 59.8449 41.361 59.6353 41.361 59.4224C41.361 59.1096 41.5765 58.9046 41.9053 58.9046C42.1164 58.9046 42.2961 59.0397 43.0098 59.7347C43.7861 60.4909 44.9692 61.8181 45.4102 62.4276L45.5861 62.6706L46.3536 61.8957L47.1211 61.1207L46.7501 60.6203C45.7502 59.2714 44.1943 57.7163 42.3253 56.1978C41.3709 55.4223 40.1761 54.5313 40.0906 54.5313C40.0639 54.5313 39.1814 55.4046 38.1296 56.4719ZM50.4848 59.3304L48.6286 61.2139L50.9534 63.562C52.2319 64.8534 53.3761 66.0628 53.496 66.2495L53.714 66.5889L55.4951 64.7763L57.2761 62.9636L57.2308 62.6209C57.1882 62.2989 57.0425 62.1333 54.8042 59.8625C53.4946 58.5339 52.4046 57.4468 52.382 57.4468C52.3594 57.4468 51.5056 58.2945 50.4848 59.3304ZM34.1331 60.5247L32.9368 61.7399L36.3297 65.1813L39.7226 68.6227L41.0609 67.2673C41.797 66.5218 42.3983 65.875 42.3973 65.83C42.3932 65.656 41.1972 64.2425 40.2037 63.2375C38.8257 61.8437 35.7402 59.3096 35.421 59.3096C35.3706 59.3096 34.791 59.8564 34.1331 60.5247ZM51.7432 66.3336C51.2522 66.8822 51.1713 67.1535 51.3779 67.5586C51.7188 68.2272 52.7016 68.0256 52.7016 67.2871C52.7016 67.0532 52.6294 66.9182 52.3313 66.595C52.1276 66.3742 51.9389 66.1949 51.912 66.1966C51.8851 66.1983 51.8091 66.26 51.7432 66.3336Z" stroke="#24A5E0" stroke-width="0.6" stroke-linejoin="round" mask="url(#path-2-outside-1_2009_106)"/>
</svg>
