<svg width="100" height="100" viewBox="0 0 100 100" fill="none" xmlns="http://www.w3.org/2000/svg">
<rect width="100" height="100" rx="50" fill="#24A5E0" fill-opacity="0.1"/>
<mask id="path-2-outside-1_2009_118" maskUnits="userSpaceOnUse" x="29" y="29" width="42" height="42" fill="black">
<rect fill="white" x="29" y="29" width="42" height="42"/>
<path fill-rule="evenodd" clip-rule="evenodd" d="M59.5201 30.3795C59.3106 30.5889 59.1406 30.8314 59.1406 30.9207C59.1406 31.1176 59.5148 31.4288 59.6948 31.3817C59.7841 31.3584 60.4466 31.9693 61.7969 33.3203L63.7684 35.293L62.8803 36.0302C62.3919 36.4355 61.655 37.0347 61.2429 37.3616L60.4937 37.9559L58.6843 36.1453C57.2567 34.7167 56.875 34.2921 56.875 34.1326C56.875 33.8844 56.6545 33.6719 56.3968 33.6719C56.1114 33.6719 55.5469 34.2731 55.5469 34.5772C55.5469 34.8763 55.6716 35 55.9733 35C56.1807 35 56.4441 35.2321 57.9677 36.7567C59.4987 38.2889 59.7084 38.5276 59.6077 38.6235C59.5441 38.6841 58.7734 39.2663 57.8948 39.9172L56.2975 41.1008L54.7477 39.5543C53.443 38.2523 53.2048 37.9798 53.2415 37.8304C53.2913 37.6279 52.9861 37.2656 52.7659 37.2656C52.55 37.2656 51.875 37.9938 51.875 38.2266C51.875 38.4505 52.1269 38.6719 52.3814 38.6719C52.484 38.6719 53.068 39.1998 54.0224 40.1552C55.3015 41.4356 55.4884 41.653 55.3888 41.744C55.3254 41.802 54.5578 42.3695 53.6831 43.0054L52.0928 44.1613L50.8241 42.8945C49.7802 41.852 49.5616 41.5954 49.5901 41.4464C49.6321 41.2263 49.3707 40.9375 49.1295 40.9375C48.9302 40.9375 48.2031 41.6366 48.2031 41.8284C48.2031 42.0254 48.5773 42.3663 48.7455 42.3223C48.8498 42.295 49.2173 42.6145 50.1102 43.5086L51.332 44.7322L50.8808 45.0504C50.6327 45.2255 49.8764 45.7955 49.2002 46.3171C48.524 46.8388 47.9434 47.2656 47.91 47.2656C47.8766 47.2656 47.4191 46.8345 46.8934 46.3075C46.0742 45.4864 45.9375 45.3139 45.9375 45.1021C45.9375 44.7987 45.7615 44.6094 45.4795 44.6094C45.1924 44.6094 44.6094 45.1966 44.6094 45.4856C44.6094 45.7366 44.7948 45.9375 45.0262 45.9375C45.1416 45.9375 45.5161 46.2567 46.1711 46.9133C47.0097 47.7539 47.1285 47.9034 47.0293 47.9934C46.9659 48.0507 46.5098 48.4276 46.0156 48.8308C45.5215 49.234 44.851 49.8007 44.5256 50.0902L43.9341 50.6164L43.0915 49.7712C42.3996 49.0771 42.2582 48.8965 42.3012 48.7612C42.3612 48.5716 42.049 48.2031 41.8284 48.2031C41.6366 48.2031 40.9375 48.9302 40.9375 49.1295C40.9375 49.3487 41.2034 49.6094 41.4272 49.6094C41.548 49.6094 41.8573 49.8639 42.4003 50.4102L43.1963 51.2109L41.68 52.7004L40.1637 54.1898L39.3838 53.4035C38.6906 52.7045 38.6088 52.593 38.6476 52.3996C38.7017 52.1291 38.4941 51.875 38.2189 51.875C37.9935 51.875 37.2656 52.5552 37.2656 52.7659C37.2656 52.941 37.6123 53.2812 37.7908 53.2812C37.8688 53.2812 38.298 53.648 38.7446 54.0962L39.5568 54.9111L39.1512 55.3549C38.7652 55.7772 37.4185 57.4309 37.0543 57.9297L36.8832 58.1641L35.9416 57.2278C35.0893 56.3803 35 56.2651 35 56.013C35 55.6709 34.8859 55.5469 34.5709 55.5469C34.2595 55.5469 33.6719 56.1154 33.6719 56.4166C33.6719 56.6462 33.8888 56.875 34.1066 56.875C34.1936 56.875 34.6841 57.3026 35.283 57.9002L36.3104 58.9254L35.669 59.912C35.3163 60.4545 34.8023 61.2941 34.5268 61.7778L34.026 62.6572L32.6755 61.3091C31.4843 60.12 31.3302 59.9373 31.3687 59.7605C31.4228 59.5121 31.1543 59.1406 30.9207 59.1406C30.7063 59.1406 30 59.8512 30 60.067C30 60.2687 30.26 60.5469 30.4485 60.5469C30.5233 60.5469 31.2572 61.2189 32.0794 62.0403L33.5743 63.5337L33.1624 64.4036C32.6107 65.5687 31.875 67.444 31.875 67.6851C31.875 67.9348 32.0666 68.125 32.3184 68.125C32.5717 68.125 34.294 67.4514 35.5184 66.8734L36.4665 66.4259L37.9598 67.9207C38.7811 68.7429 39.4531 69.4767 39.4531 69.5515C39.4531 69.74 39.7313 70 39.933 70C40.1488 70 40.8594 69.2938 40.8594 69.0793C40.8594 68.8457 40.4879 68.5772 40.2395 68.6313C40.0627 68.6698 39.8805 68.5159 38.6934 67.3258L37.3478 65.9766L38.2247 65.4773C38.707 65.2028 39.5455 64.6882 40.0881 64.3339L41.0746 63.6897L42.0998 64.717C42.7827 65.4013 43.125 65.8008 43.125 65.9134C43.125 66.143 43.3267 66.3281 43.5769 66.3281C43.8846 66.3281 44.4531 65.7448 44.4531 65.4291C44.4531 65.1141 44.3291 65 43.987 65C43.7352 65 43.6191 64.9104 42.7748 64.0638C42.2095 63.497 41.8709 63.1013 41.9166 63.0609C41.9582 63.0241 42.3438 62.7271 42.7734 62.401C43.2031 62.0749 43.9015 61.5027 44.3254 61.1293L45.0962 60.4505L45.9074 61.259C46.3537 61.7037 46.7188 62.1313 46.7188 62.2092C46.7188 62.3877 47.059 62.7344 47.2341 62.7344C47.4518 62.7344 48.125 62.0062 48.125 61.7708C48.125 61.5184 47.8121 61.2895 47.5584 61.3562C47.4137 61.3943 47.2451 61.2652 46.598 60.6209L45.8133 59.8394L47.3012 58.3209L48.7891 56.8026L49.5898 57.5991C50.1359 58.1423 50.3906 58.452 50.3906 58.5728C50.3906 58.7966 50.6513 59.0625 50.8705 59.0625C51.0698 59.0625 51.7969 58.3634 51.7969 58.1716C51.7969 57.9512 51.4235 57.635 51.2227 57.6854C51.0784 57.7216 50.9016 57.5836 50.2313 56.911C49.6107 56.2883 49.4341 56.0666 49.493 55.9845C49.5665 55.8817 51.8979 53.0913 52.0431 52.9322C52.1463 52.8191 54.0625 54.7563 54.0625 54.9738C54.0625 55.2072 54.264 55.3906 54.5205 55.3906C54.8076 55.3906 55.3906 54.8034 55.3906 54.5144C55.3906 54.2374 55.199 54.0625 54.8956 54.0625C54.6802 54.0625 54.5126 53.9287 53.6714 53.0855C52.9172 52.3295 52.7142 52.083 52.7741 51.9963C53.1213 51.4938 55.2544 48.75 55.2979 48.75C55.3284 48.75 55.8777 49.275 56.5182 49.9166C57.4091 50.8091 57.6851 51.1326 57.6921 51.2931C57.7017 51.5134 57.9785 51.7969 58.1839 51.7969C58.3663 51.7969 59.0625 51.0629 59.0625 50.8705C59.0625 50.6293 58.7737 50.3679 58.5536 50.4099C58.4046 50.4384 58.1483 50.22 57.1075 49.1778L55.8425 47.911L56.9958 46.3188C57.6301 45.443 58.1968 44.6746 58.2552 44.6112C58.347 44.5113 58.5621 44.6962 59.8448 45.9776C60.8002 46.932 61.3281 47.516 61.3281 47.6186C61.3281 47.883 61.5492 48.125 61.7906 48.125C61.9527 48.125 62.1044 48.024 62.3721 47.7377C62.5713 47.5247 62.7344 47.2946 62.7344 47.2263C62.7344 47.0125 62.3688 46.7096 62.1696 46.7585C62.0202 46.7952 61.7477 46.557 60.4457 45.2523L58.8992 43.7025L60.0828 42.1052C60.7337 41.2266 61.3159 40.4559 61.3765 40.3923C61.4724 40.2916 61.7111 40.5013 63.2433 42.0323C64.7679 43.5559 65 43.8193 65 44.0267C65 44.33 65.1238 44.4531 65.4291 44.4531C65.7405 44.4531 66.3281 43.8846 66.3281 43.5834C66.3281 43.3386 66.1071 43.125 65.8538 43.125C65.712 43.125 65.2161 42.6761 63.8547 41.3157L62.0441 39.5063L62.6384 38.7571C62.9653 38.345 63.5645 37.6081 63.9698 37.1197L64.707 36.2316L66.6797 38.2031C68.0307 39.5534 68.6416 40.2159 68.6183 40.3052C68.5712 40.4852 68.8824 40.8594 69.0793 40.8594C69.2938 40.8594 70 40.1488 70 39.933C70 39.6954 69.7169 39.4382 69.4879 39.4677C69.3311 39.488 68.9535 39.1477 67.31 37.5052L65.3218 35.5182L65.8835 34.8939C66.1925 34.5505 66.8101 33.8884 67.2559 33.4226C68.098 32.5426 68.2112 32.3183 67.9464 32.0536C67.6817 31.7888 67.4574 31.902 66.5774 32.7441C66.1116 33.1899 65.4495 33.8075 65.1061 34.1165L64.4818 34.6782L62.4948 32.69C60.8523 31.0465 60.512 30.6689 60.5323 30.5121C60.5618 30.2831 60.3046 30 60.067 30C59.9709 30 59.7378 30.1617 59.5201 30.3795ZM61.6185 38.2512C61.2371 38.5545 61.182 38.6289 61.2646 38.7285C61.3495 38.8309 61.3921 38.8116 61.5854 38.5834C61.8493 38.2719 62.1302 37.8904 62.0952 37.8912C62.0815 37.8916 61.867 38.0535 61.6185 38.2512ZM58.6578 40.501L56.9641 41.77L57.5963 42.4022L58.2285 43.0344L59.5113 41.3142L60.7941 39.5941L60.6178 39.4064C60.5209 39.3032 60.4212 39.2217 60.3966 39.2254C60.3718 39.2291 59.5894 39.803 58.6578 40.501ZM54.5172 43.5394C53.6286 44.1923 52.8745 44.7541 52.8413 44.7879C52.7849 44.8452 55.0546 47.1875 55.1664 47.1875C55.1945 47.1875 55.7702 46.4275 56.4457 45.4986L57.6739 43.8097L56.944 43.0767C56.5425 42.6736 56.1958 42.3456 56.1734 42.348C56.1511 42.3503 55.4058 42.8864 54.5172 43.5394ZM50.4634 46.5291C49.6284 47.1602 48.865 47.7495 48.7668 47.8387L48.5884 48.0011L50.2863 49.7003C51.5873 51.0024 52.0078 51.38 52.0851 51.3159C52.1773 51.2393 54.4388 48.2735 54.552 48.0808C54.5788 48.035 54.0115 47.409 53.2912 46.6896L51.9815 45.3816L50.4634 46.5291ZM47.4219 48.8854C46.0805 49.9866 45.1534 50.7662 44.9008 51.0056L44.6062 51.2848L46.6546 53.3343C48.3087 54.9893 48.724 55.3665 48.8118 55.2936C48.9418 55.1858 50.3284 53.5536 50.9741 52.7484L51.4329 52.1763L49.6429 50.3851C48.6584 49.3998 47.835 48.5945 47.8131 48.5953C47.7913 48.5961 47.6152 48.7266 47.4219 48.8854ZM42.3122 53.4086L40.8417 54.8641L42.9732 56.9966L45.1046 59.1291L45.6417 58.6389C46.3077 58.0311 48.0469 56.2094 48.0469 56.1197C48.0469 56.0239 43.9596 51.9531 43.8634 51.9531C43.8191 51.9531 43.1209 52.6081 42.3122 53.4086ZM39.4077 56.5039C38.9945 56.9873 38.4073 57.7101 38.1026 58.1101L37.5487 58.8373L39.3547 60.6433L41.1606 62.4493L41.7618 61.9968C42.4745 61.4604 44.1389 60.0732 44.2939 59.8864C44.3914 59.7688 44.1896 59.5422 42.3386 57.6902C41.2034 56.5543 40.2485 55.625 40.2167 55.625C40.1849 55.625 39.8209 56.0205 39.4077 56.5039ZM36.4977 60.3711C35.943 61.1963 34.7656 63.1984 34.7656 63.3164C34.7656 63.3629 35.1888 63.8222 35.7059 64.3372L36.646 65.2734L37.2879 64.9295C37.9791 64.559 39.5691 63.5808 40.0705 63.2176L40.3786 62.9945L38.7238 61.3409C37.8137 60.4316 37.0438 59.6875 37.013 59.6875C36.9823 59.6875 36.7504 59.9952 36.4977 60.3711ZM33.8422 65.1758C33.3879 66.1859 33.112 66.875 33.1617 66.875C33.2809 66.875 35.5837 65.8362 35.6991 65.7303C35.7394 65.6934 34.3651 64.2969 34.2884 64.2969C34.2604 64.2969 34.0597 64.6924 33.8422 65.1758Z"/>
</mask>
<path fill-rule="evenodd" clip-rule="evenodd" d="M59.5201 30.3795C59.3106 30.5889 59.1406 30.8314 59.1406 30.9207C59.1406 31.1176 59.5148 31.4288 59.6948 31.3817C59.7841 31.3584 60.4466 31.9693 61.7969 33.3203L63.7684 35.293L62.8803 36.0302C62.3919 36.4355 61.655 37.0347 61.2429 37.3616L60.4937 37.9559L58.6843 36.1453C57.2567 34.7167 56.875 34.2921 56.875 34.1326C56.875 33.8844 56.6545 33.6719 56.3968 33.6719C56.1114 33.6719 55.5469 34.2731 55.5469 34.5772C55.5469 34.8763 55.6716 35 55.9733 35C56.1807 35 56.4441 35.2321 57.9677 36.7567C59.4987 38.2889 59.7084 38.5276 59.6077 38.6235C59.5441 38.6841 58.7734 39.2663 57.8948 39.9172L56.2975 41.1008L54.7477 39.5543C53.443 38.2523 53.2048 37.9798 53.2415 37.8304C53.2913 37.6279 52.9861 37.2656 52.7659 37.2656C52.55 37.2656 51.875 37.9938 51.875 38.2266C51.875 38.4505 52.1269 38.6719 52.3814 38.6719C52.484 38.6719 53.068 39.1998 54.0224 40.1552C55.3015 41.4356 55.4884 41.653 55.3888 41.744C55.3254 41.802 54.5578 42.3695 53.6831 43.0054L52.0928 44.1613L50.8241 42.8945C49.7802 41.852 49.5616 41.5954 49.5901 41.4464C49.6321 41.2263 49.3707 40.9375 49.1295 40.9375C48.9302 40.9375 48.2031 41.6366 48.2031 41.8284C48.2031 42.0254 48.5773 42.3663 48.7455 42.3223C48.8498 42.295 49.2173 42.6145 50.1102 43.5086L51.332 44.7322L50.8808 45.0504C50.6327 45.2255 49.8764 45.7955 49.2002 46.3171C48.524 46.8388 47.9434 47.2656 47.91 47.2656C47.8766 47.2656 47.4191 46.8345 46.8934 46.3075C46.0742 45.4864 45.9375 45.3139 45.9375 45.1021C45.9375 44.7987 45.7615 44.6094 45.4795 44.6094C45.1924 44.6094 44.6094 45.1966 44.6094 45.4856C44.6094 45.7366 44.7948 45.9375 45.0262 45.9375C45.1416 45.9375 45.5161 46.2567 46.1711 46.9133C47.0097 47.7539 47.1285 47.9034 47.0293 47.9934C46.9659 48.0507 46.5098 48.4276 46.0156 48.8308C45.5215 49.234 44.851 49.8007 44.5256 50.0902L43.9341 50.6164L43.0915 49.7712C42.3996 49.0771 42.2582 48.8965 42.3012 48.7612C42.3612 48.5716 42.049 48.2031 41.8284 48.2031C41.6366 48.2031 40.9375 48.9302 40.9375 49.1295C40.9375 49.3487 41.2034 49.6094 41.4272 49.6094C41.548 49.6094 41.8573 49.8639 42.4003 50.4102L43.1963 51.2109L41.68 52.7004L40.1637 54.1898L39.3838 53.4035C38.6906 52.7045 38.6088 52.593 38.6476 52.3996C38.7017 52.1291 38.4941 51.875 38.2189 51.875C37.9935 51.875 37.2656 52.5552 37.2656 52.7659C37.2656 52.941 37.6123 53.2812 37.7908 53.2812C37.8688 53.2812 38.298 53.648 38.7446 54.0962L39.5568 54.9111L39.1512 55.3549C38.7652 55.7772 37.4185 57.4309 37.0543 57.9297L36.8832 58.1641L35.9416 57.2278C35.0893 56.3803 35 56.2651 35 56.013C35 55.6709 34.8859 55.5469 34.5709 55.5469C34.2595 55.5469 33.6719 56.1154 33.6719 56.4166C33.6719 56.6462 33.8888 56.875 34.1066 56.875C34.1936 56.875 34.6841 57.3026 35.283 57.9002L36.3104 58.9254L35.669 59.912C35.3163 60.4545 34.8023 61.2941 34.5268 61.7778L34.026 62.6572L32.6755 61.3091C31.4843 60.12 31.3302 59.9373 31.3687 59.7605C31.4228 59.5121 31.1543 59.1406 30.9207 59.1406C30.7063 59.1406 30 59.8512 30 60.067C30 60.2687 30.26 60.5469 30.4485 60.5469C30.5233 60.5469 31.2572 61.2189 32.0794 62.0403L33.5743 63.5337L33.1624 64.4036C32.6107 65.5687 31.875 67.444 31.875 67.6851C31.875 67.9348 32.0666 68.125 32.3184 68.125C32.5717 68.125 34.294 67.4514 35.5184 66.8734L36.4665 66.4259L37.9598 67.9207C38.7811 68.7429 39.4531 69.4767 39.4531 69.5515C39.4531 69.74 39.7313 70 39.933 70C40.1488 70 40.8594 69.2938 40.8594 69.0793C40.8594 68.8457 40.4879 68.5772 40.2395 68.6313C40.0627 68.6698 39.8805 68.5159 38.6934 67.3258L37.3478 65.9766L38.2247 65.4773C38.707 65.2028 39.5455 64.6882 40.0881 64.3339L41.0746 63.6897L42.0998 64.717C42.7827 65.4013 43.125 65.8008 43.125 65.9134C43.125 66.143 43.3267 66.3281 43.5769 66.3281C43.8846 66.3281 44.4531 65.7448 44.4531 65.4291C44.4531 65.1141 44.3291 65 43.987 65C43.7352 65 43.6191 64.9104 42.7748 64.0638C42.2095 63.497 41.8709 63.1013 41.9166 63.0609C41.9582 63.0241 42.3438 62.7271 42.7734 62.401C43.2031 62.0749 43.9015 61.5027 44.3254 61.1293L45.0962 60.4505L45.9074 61.259C46.3537 61.7037 46.7188 62.1313 46.7188 62.2092C46.7188 62.3877 47.059 62.7344 47.2341 62.7344C47.4518 62.7344 48.125 62.0062 48.125 61.7708C48.125 61.5184 47.8121 61.2895 47.5584 61.3562C47.4137 61.3943 47.2451 61.2652 46.598 60.6209L45.8133 59.8394L47.3012 58.3209L48.7891 56.8026L49.5898 57.5991C50.1359 58.1423 50.3906 58.452 50.3906 58.5728C50.3906 58.7966 50.6513 59.0625 50.8705 59.0625C51.0698 59.0625 51.7969 58.3634 51.7969 58.1716C51.7969 57.9512 51.4235 57.635 51.2227 57.6854C51.0784 57.7216 50.9016 57.5836 50.2313 56.911C49.6107 56.2883 49.4341 56.0666 49.493 55.9845C49.5665 55.8817 51.8979 53.0913 52.0431 52.9322C52.1463 52.8191 54.0625 54.7563 54.0625 54.9738C54.0625 55.2072 54.264 55.3906 54.5205 55.3906C54.8076 55.3906 55.3906 54.8034 55.3906 54.5144C55.3906 54.2374 55.199 54.0625 54.8956 54.0625C54.6802 54.0625 54.5126 53.9287 53.6714 53.0855C52.9172 52.3295 52.7142 52.083 52.7741 51.9963C53.1213 51.4938 55.2544 48.75 55.2979 48.75C55.3284 48.75 55.8777 49.275 56.5182 49.9166C57.4091 50.8091 57.6851 51.1326 57.6921 51.2931C57.7017 51.5134 57.9785 51.7969 58.1839 51.7969C58.3663 51.7969 59.0625 51.0629 59.0625 50.8705C59.0625 50.6293 58.7737 50.3679 58.5536 50.4099C58.4046 50.4384 58.1483 50.22 57.1075 49.1778L55.8425 47.911L56.9958 46.3188C57.6301 45.443 58.1968 44.6746 58.2552 44.6112C58.347 44.5113 58.5621 44.6962 59.8448 45.9776C60.8002 46.932 61.3281 47.516 61.3281 47.6186C61.3281 47.883 61.5492 48.125 61.7906 48.125C61.9527 48.125 62.1044 48.024 62.3721 47.7377C62.5713 47.5247 62.7344 47.2946 62.7344 47.2263C62.7344 47.0125 62.3688 46.7096 62.1696 46.7585C62.0202 46.7952 61.7477 46.557 60.4457 45.2523L58.8992 43.7025L60.0828 42.1052C60.7337 41.2266 61.3159 40.4559 61.3765 40.3923C61.4724 40.2916 61.7111 40.5013 63.2433 42.0323C64.7679 43.5559 65 43.8193 65 44.0267C65 44.33 65.1238 44.4531 65.4291 44.4531C65.7405 44.4531 66.3281 43.8846 66.3281 43.5834C66.3281 43.3386 66.1071 43.125 65.8538 43.125C65.712 43.125 65.2161 42.6761 63.8547 41.3157L62.0441 39.5063L62.6384 38.7571C62.9653 38.345 63.5645 37.6081 63.9698 37.1197L64.707 36.2316L66.6797 38.2031C68.0307 39.5534 68.6416 40.2159 68.6183 40.3052C68.5712 40.4852 68.8824 40.8594 69.0793 40.8594C69.2938 40.8594 70 40.1488 70 39.933C70 39.6954 69.7169 39.4382 69.4879 39.4677C69.3311 39.488 68.9535 39.1477 67.31 37.5052L65.3218 35.5182L65.8835 34.8939C66.1925 34.5505 66.8101 33.8884 67.2559 33.4226C68.098 32.5426 68.2112 32.3183 67.9464 32.0536C67.6817 31.7888 67.4574 31.902 66.5774 32.7441C66.1116 33.1899 65.4495 33.8075 65.1061 34.1165L64.4818 34.6782L62.4948 32.69C60.8523 31.0465 60.512 30.6689 60.5323 30.5121C60.5618 30.2831 60.3046 30 60.067 30C59.9709 30 59.7378 30.1617 59.5201 30.3795ZM61.6185 38.2512C61.2371 38.5545 61.182 38.6289 61.2646 38.7285C61.3495 38.8309 61.3921 38.8116 61.5854 38.5834C61.8493 38.2719 62.1302 37.8904 62.0952 37.8912C62.0815 37.8916 61.867 38.0535 61.6185 38.2512ZM58.6578 40.501L56.9641 41.77L57.5963 42.4022L58.2285 43.0344L59.5113 41.3142L60.7941 39.5941L60.6178 39.4064C60.5209 39.3032 60.4212 39.2217 60.3966 39.2254C60.3718 39.2291 59.5894 39.803 58.6578 40.501ZM54.5172 43.5394C53.6286 44.1923 52.8745 44.7541 52.8413 44.7879C52.7849 44.8452 55.0546 47.1875 55.1664 47.1875C55.1945 47.1875 55.7702 46.4275 56.4457 45.4986L57.6739 43.8097L56.944 43.0767C56.5425 42.6736 56.1958 42.3456 56.1734 42.348C56.1511 42.3503 55.4058 42.8864 54.5172 43.5394ZM50.4634 46.5291C49.6284 47.1602 48.865 47.7495 48.7668 47.8387L48.5884 48.0011L50.2863 49.7003C51.5873 51.0024 52.0078 51.38 52.0851 51.3159C52.1773 51.2393 54.4388 48.2735 54.552 48.0808C54.5788 48.035 54.0115 47.409 53.2912 46.6896L51.9815 45.3816L50.4634 46.5291ZM47.4219 48.8854C46.0805 49.9866 45.1534 50.7662 44.9008 51.0056L44.6062 51.2848L46.6546 53.3343C48.3087 54.9893 48.724 55.3665 48.8118 55.2936C48.9418 55.1858 50.3284 53.5536 50.9741 52.7484L51.4329 52.1763L49.6429 50.3851C48.6584 49.3998 47.835 48.5945 47.8131 48.5953C47.7913 48.5961 47.6152 48.7266 47.4219 48.8854ZM42.3122 53.4086L40.8417 54.8641L42.9732 56.9966L45.1046 59.1291L45.6417 58.6389C46.3077 58.0311 48.0469 56.2094 48.0469 56.1197C48.0469 56.0239 43.9596 51.9531 43.8634 51.9531C43.8191 51.9531 43.1209 52.6081 42.3122 53.4086ZM39.4077 56.5039C38.9945 56.9873 38.4073 57.7101 38.1026 58.1101L37.5487 58.8373L39.3547 60.6433L41.1606 62.4493L41.7618 61.9968C42.4745 61.4604 44.1389 60.0732 44.2939 59.8864C44.3914 59.7688 44.1896 59.5422 42.3386 57.6902C41.2034 56.5543 40.2485 55.625 40.2167 55.625C40.1849 55.625 39.8209 56.0205 39.4077 56.5039ZM36.4977 60.3711C35.943 61.1963 34.7656 63.1984 34.7656 63.3164C34.7656 63.3629 35.1888 63.8222 35.7059 64.3372L36.646 65.2734L37.2879 64.9295C37.9791 64.559 39.5691 63.5808 40.0705 63.2176L40.3786 62.9945L38.7238 61.3409C37.8137 60.4316 37.0438 59.6875 37.013 59.6875C36.9823 59.6875 36.7504 59.9952 36.4977 60.3711ZM33.8422 65.1758C33.3879 66.1859 33.112 66.875 33.1617 66.875C33.2809 66.875 35.5837 65.8362 35.6991 65.7303C35.7394 65.6934 34.3651 64.2969 34.2884 64.2969C34.2604 64.2969 34.0597 64.6924 33.8422 65.1758Z" fill="#24A5E0"/>
<path fill-rule="evenodd" clip-rule="evenodd" d="M59.5201 30.3795C59.3106 30.5889 59.1406 30.8314 59.1406 30.9207C59.1406 31.1176 59.5148 31.4288 59.6948 31.3817C59.7841 31.3584 60.4466 31.9693 61.7969 33.3203L63.7684 35.293L62.8803 36.0302C62.3919 36.4355 61.655 37.0347 61.2429 37.3616L60.4937 37.9559L58.6843 36.1453C57.2567 34.7167 56.875 34.2921 56.875 34.1326C56.875 33.8844 56.6545 33.6719 56.3968 33.6719C56.1114 33.6719 55.5469 34.2731 55.5469 34.5772C55.5469 34.8763 55.6716 35 55.9733 35C56.1807 35 56.4441 35.2321 57.9677 36.7567C59.4987 38.2889 59.7084 38.5276 59.6077 38.6235C59.5441 38.6841 58.7734 39.2663 57.8948 39.9172L56.2975 41.1008L54.7477 39.5543C53.443 38.2523 53.2048 37.9798 53.2415 37.8304C53.2913 37.6279 52.9861 37.2656 52.7659 37.2656C52.55 37.2656 51.875 37.9938 51.875 38.2266C51.875 38.4505 52.1269 38.6719 52.3814 38.6719C52.484 38.6719 53.068 39.1998 54.0224 40.1552C55.3015 41.4356 55.4884 41.653 55.3888 41.744C55.3254 41.802 54.5578 42.3695 53.6831 43.0054L52.0928 44.1613L50.8241 42.8945C49.7802 41.852 49.5616 41.5954 49.5901 41.4464C49.6321 41.2263 49.3707 40.9375 49.1295 40.9375C48.9302 40.9375 48.2031 41.6366 48.2031 41.8284C48.2031 42.0254 48.5773 42.3663 48.7455 42.3223C48.8498 42.295 49.2173 42.6145 50.1102 43.5086L51.332 44.7322L50.8808 45.0504C50.6327 45.2255 49.8764 45.7955 49.2002 46.3171C48.524 46.8388 47.9434 47.2656 47.91 47.2656C47.8766 47.2656 47.4191 46.8345 46.8934 46.3075C46.0742 45.4864 45.9375 45.3139 45.9375 45.1021C45.9375 44.7987 45.7615 44.6094 45.4795 44.6094C45.1924 44.6094 44.6094 45.1966 44.6094 45.4856C44.6094 45.7366 44.7948 45.9375 45.0262 45.9375C45.1416 45.9375 45.5161 46.2567 46.1711 46.9133C47.0097 47.7539 47.1285 47.9034 47.0293 47.9934C46.9659 48.0507 46.5098 48.4276 46.0156 48.8308C45.5215 49.234 44.851 49.8007 44.5256 50.0902L43.9341 50.6164L43.0915 49.7712C42.3996 49.0771 42.2582 48.8965 42.3012 48.7612C42.3612 48.5716 42.049 48.2031 41.8284 48.2031C41.6366 48.2031 40.9375 48.9302 40.9375 49.1295C40.9375 49.3487 41.2034 49.6094 41.4272 49.6094C41.548 49.6094 41.8573 49.8639 42.4003 50.4102L43.1963 51.2109L41.68 52.7004L40.1637 54.1898L39.3838 53.4035C38.6906 52.7045 38.6088 52.593 38.6476 52.3996C38.7017 52.1291 38.4941 51.875 38.2189 51.875C37.9935 51.875 37.2656 52.5552 37.2656 52.7659C37.2656 52.941 37.6123 53.2812 37.7908 53.2812C37.8688 53.2812 38.298 53.648 38.7446 54.0962L39.5568 54.9111L39.1512 55.3549C38.7652 55.7772 37.4185 57.4309 37.0543 57.9297L36.8832 58.1641L35.9416 57.2278C35.0893 56.3803 35 56.2651 35 56.013C35 55.6709 34.8859 55.5469 34.5709 55.5469C34.2595 55.5469 33.6719 56.1154 33.6719 56.4166C33.6719 56.6462 33.8888 56.875 34.1066 56.875C34.1936 56.875 34.6841 57.3026 35.283 57.9002L36.3104 58.9254L35.669 59.912C35.3163 60.4545 34.8023 61.2941 34.5268 61.7778L34.026 62.6572L32.6755 61.3091C31.4843 60.12 31.3302 59.9373 31.3687 59.7605C31.4228 59.5121 31.1543 59.1406 30.9207 59.1406C30.7063 59.1406 30 59.8512 30 60.067C30 60.2687 30.26 60.5469 30.4485 60.5469C30.5233 60.5469 31.2572 61.2189 32.0794 62.0403L33.5743 63.5337L33.1624 64.4036C32.6107 65.5687 31.875 67.444 31.875 67.6851C31.875 67.9348 32.0666 68.125 32.3184 68.125C32.5717 68.125 34.294 67.4514 35.5184 66.8734L36.4665 66.4259L37.9598 67.9207C38.7811 68.7429 39.4531 69.4767 39.4531 69.5515C39.4531 69.74 39.7313 70 39.933 70C40.1488 70 40.8594 69.2938 40.8594 69.0793C40.8594 68.8457 40.4879 68.5772 40.2395 68.6313C40.0627 68.6698 39.8805 68.5159 38.6934 67.3258L37.3478 65.9766L38.2247 65.4773C38.707 65.2028 39.5455 64.6882 40.0881 64.3339L41.0746 63.6897L42.0998 64.717C42.7827 65.4013 43.125 65.8008 43.125 65.9134C43.125 66.143 43.3267 66.3281 43.5769 66.3281C43.8846 66.3281 44.4531 65.7448 44.4531 65.4291C44.4531 65.1141 44.3291 65 43.987 65C43.7352 65 43.6191 64.9104 42.7748 64.0638C42.2095 63.497 41.8709 63.1013 41.9166 63.0609C41.9582 63.0241 42.3438 62.7271 42.7734 62.401C43.2031 62.0749 43.9015 61.5027 44.3254 61.1293L45.0962 60.4505L45.9074 61.259C46.3537 61.7037 46.7188 62.1313 46.7188 62.2092C46.7188 62.3877 47.059 62.7344 47.2341 62.7344C47.4518 62.7344 48.125 62.0062 48.125 61.7708C48.125 61.5184 47.8121 61.2895 47.5584 61.3562C47.4137 61.3943 47.2451 61.2652 46.598 60.6209L45.8133 59.8394L47.3012 58.3209L48.7891 56.8026L49.5898 57.5991C50.1359 58.1423 50.3906 58.452 50.3906 58.5728C50.3906 58.7966 50.6513 59.0625 50.8705 59.0625C51.0698 59.0625 51.7969 58.3634 51.7969 58.1716C51.7969 57.9512 51.4235 57.635 51.2227 57.6854C51.0784 57.7216 50.9016 57.5836 50.2313 56.911C49.6107 56.2883 49.4341 56.0666 49.493 55.9845C49.5665 55.8817 51.8979 53.0913 52.0431 52.9322C52.1463 52.8191 54.0625 54.7563 54.0625 54.9738C54.0625 55.2072 54.264 55.3906 54.5205 55.3906C54.8076 55.3906 55.3906 54.8034 55.3906 54.5144C55.3906 54.2374 55.199 54.0625 54.8956 54.0625C54.6802 54.0625 54.5126 53.9287 53.6714 53.0855C52.9172 52.3295 52.7142 52.083 52.7741 51.9963C53.1213 51.4938 55.2544 48.75 55.2979 48.75C55.3284 48.75 55.8777 49.275 56.5182 49.9166C57.4091 50.8091 57.6851 51.1326 57.6921 51.2931C57.7017 51.5134 57.9785 51.7969 58.1839 51.7969C58.3663 51.7969 59.0625 51.0629 59.0625 50.8705C59.0625 50.6293 58.7737 50.3679 58.5536 50.4099C58.4046 50.4384 58.1483 50.22 57.1075 49.1778L55.8425 47.911L56.9958 46.3188C57.6301 45.443 58.1968 44.6746 58.2552 44.6112C58.347 44.5113 58.5621 44.6962 59.8448 45.9776C60.8002 46.932 61.3281 47.516 61.3281 47.6186C61.3281 47.883 61.5492 48.125 61.7906 48.125C61.9527 48.125 62.1044 48.024 62.3721 47.7377C62.5713 47.5247 62.7344 47.2946 62.7344 47.2263C62.7344 47.0125 62.3688 46.7096 62.1696 46.7585C62.0202 46.7952 61.7477 46.557 60.4457 45.2523L58.8992 43.7025L60.0828 42.1052C60.7337 41.2266 61.3159 40.4559 61.3765 40.3923C61.4724 40.2916 61.7111 40.5013 63.2433 42.0323C64.7679 43.5559 65 43.8193 65 44.0267C65 44.33 65.1238 44.4531 65.4291 44.4531C65.7405 44.4531 66.3281 43.8846 66.3281 43.5834C66.3281 43.3386 66.1071 43.125 65.8538 43.125C65.712 43.125 65.2161 42.6761 63.8547 41.3157L62.0441 39.5063L62.6384 38.7571C62.9653 38.345 63.5645 37.6081 63.9698 37.1197L64.707 36.2316L66.6797 38.2031C68.0307 39.5534 68.6416 40.2159 68.6183 40.3052C68.5712 40.4852 68.8824 40.8594 69.0793 40.8594C69.2938 40.8594 70 40.1488 70 39.933C70 39.6954 69.7169 39.4382 69.4879 39.4677C69.3311 39.488 68.9535 39.1477 67.31 37.5052L65.3218 35.5182L65.8835 34.8939C66.1925 34.5505 66.8101 33.8884 67.2559 33.4226C68.098 32.5426 68.2112 32.3183 67.9464 32.0536C67.6817 31.7888 67.4574 31.902 66.5774 32.7441C66.1116 33.1899 65.4495 33.8075 65.1061 34.1165L64.4818 34.6782L62.4948 32.69C60.8523 31.0465 60.512 30.6689 60.5323 30.5121C60.5618 30.2831 60.3046 30 60.067 30C59.9709 30 59.7378 30.1617 59.5201 30.3795ZM61.6185 38.2512C61.2371 38.5545 61.182 38.6289 61.2646 38.7285C61.3495 38.8309 61.3921 38.8116 61.5854 38.5834C61.8493 38.2719 62.1302 37.8904 62.0952 37.8912C62.0815 37.8916 61.867 38.0535 61.6185 38.2512ZM58.6578 40.501L56.9641 41.77L57.5963 42.4022L58.2285 43.0344L59.5113 41.3142L60.7941 39.5941L60.6178 39.4064C60.5209 39.3032 60.4212 39.2217 60.3966 39.2254C60.3718 39.2291 59.5894 39.803 58.6578 40.501ZM54.5172 43.5394C53.6286 44.1923 52.8745 44.7541 52.8413 44.7879C52.7849 44.8452 55.0546 47.1875 55.1664 47.1875C55.1945 47.1875 55.7702 46.4275 56.4457 45.4986L57.6739 43.8097L56.944 43.0767C56.5425 42.6736 56.1958 42.3456 56.1734 42.348C56.1511 42.3503 55.4058 42.8864 54.5172 43.5394ZM50.4634 46.5291C49.6284 47.1602 48.865 47.7495 48.7668 47.8387L48.5884 48.0011L50.2863 49.7003C51.5873 51.0024 52.0078 51.38 52.0851 51.3159C52.1773 51.2393 54.4388 48.2735 54.552 48.0808C54.5788 48.035 54.0115 47.409 53.2912 46.6896L51.9815 45.3816L50.4634 46.5291ZM47.4219 48.8854C46.0805 49.9866 45.1534 50.7662 44.9008 51.0056L44.6062 51.2848L46.6546 53.3343C48.3087 54.9893 48.724 55.3665 48.8118 55.2936C48.9418 55.1858 50.3284 53.5536 50.9741 52.7484L51.4329 52.1763L49.6429 50.3851C48.6584 49.3998 47.835 48.5945 47.8131 48.5953C47.7913 48.5961 47.6152 48.7266 47.4219 48.8854ZM42.3122 53.4086L40.8417 54.8641L42.9732 56.9966L45.1046 59.1291L45.6417 58.6389C46.3077 58.0311 48.0469 56.2094 48.0469 56.1197C48.0469 56.0239 43.9596 51.9531 43.8634 51.9531C43.8191 51.9531 43.1209 52.6081 42.3122 53.4086ZM39.4077 56.5039C38.9945 56.9873 38.4073 57.7101 38.1026 58.1101L37.5487 58.8373L39.3547 60.6433L41.1606 62.4493L41.7618 61.9968C42.4745 61.4604 44.1389 60.0732 44.2939 59.8864C44.3914 59.7688 44.1896 59.5422 42.3386 57.6902C41.2034 56.5543 40.2485 55.625 40.2167 55.625C40.1849 55.625 39.8209 56.0205 39.4077 56.5039ZM36.4977 60.3711C35.943 61.1963 34.7656 63.1984 34.7656 63.3164C34.7656 63.3629 35.1888 63.8222 35.7059 64.3372L36.646 65.2734L37.2879 64.9295C37.9791 64.559 39.5691 63.5808 40.0705 63.2176L40.3786 62.9945L38.7238 61.3409C37.8137 60.4316 37.0438 59.6875 37.013 59.6875C36.9823 59.6875 36.7504 59.9952 36.4977 60.3711ZM33.8422 65.1758C33.3879 66.1859 33.112 66.875 33.1617 66.875C33.2809 66.875 35.5837 65.8362 35.6991 65.7303C35.7394 65.6934 34.3651 64.2969 34.2884 64.2969C34.2604 64.2969 34.0597 64.6924 33.8422 65.1758Z" stroke="#24A5E0" stroke-width="0.6" stroke-linejoin="round" mask="url(#path-2-outside-1_2009_118)"/>
</svg>
