<svg width="31" height="31" viewBox="0 0 31 31" fill="none" xmlns="http://www.w3.org/2000/svg">
  <g clip-path="url(#clip0_32_1179)">
    <path d="M31.0004 16.8773C30.8798 17.2579 30.6543 17.5798 30.4288 17.9022C28.7659 20.2817 27.1218 22.674 25.4365 25.0372C24.3623 26.5433 22.8697 27.3464 21.0074 27.3573C17.6301 27.3767 14.2528 27.3609 10.8755 27.3688C10.627 27.3688 10.4985 27.284 10.3894 27.0652C8.77012 23.8074 7.14543 20.5521 5.51408 17.3004C5.3995 17.0719 5.41829 16.9373 5.61592 16.7634C6.29732 16.1633 6.986 15.5748 7.78076 15.1275C9.98924 13.8832 12.8482 13.982 14.8918 15.596C15.05 15.7209 15.2228 15.833 15.3592 15.9785C15.6969 16.3397 16.1115 16.4409 16.5886 16.4373C18.0502 16.4258 19.5125 16.4282 20.9741 16.4361C21.8476 16.4403 22.5545 17.0215 22.7582 17.8774C22.9431 18.655 22.5497 19.5029 21.8179 19.8951C21.5373 20.0454 21.236 20.1078 20.9159 20.1066C19.7768 20.1017 18.6377 20.1011 17.498 20.1066C16.8954 20.1096 16.5468 20.3781 16.4716 20.8757C16.4055 21.3133 16.6856 21.723 17.1185 21.8291C17.2767 21.8679 17.4361 21.8776 17.598 21.8776C18.8177 21.8764 20.0381 21.8776 21.2578 21.877C22.0295 21.877 22.6485 21.5945 23.1438 20.9757C24.6296 19.1186 26.1664 17.301 27.6323 15.4287C28.661 14.1147 30.5343 14.4911 30.9604 15.9494C30.9689 15.9779 30.9865 16.0039 30.9998 16.0306V16.8773H31.0004Z" fill="#1C7FAD" />
    <path opacity="0.4" d="M9.00306 28.5481C8.99518 29.3409 8.69995 29.8718 8.11494 30.2343C7.67724 30.5052 7.20742 30.7167 6.73638 30.921C6.28717 31.1155 5.81552 30.9434 5.56212 30.5216C5.52575 30.4609 5.49362 30.3979 5.46209 30.3349C3.69615 26.8038 1.93082 23.2726 0.164278 19.7415C0.0684946 19.5506 -0.00970865 19.3591 -9.02772e-06 19.1372C0.0115093 18.8694 0.0988059 18.6166 0.31826 18.4808C0.916605 18.1111 1.52404 17.7323 2.22181 17.5899C3.00202 17.4305 3.61977 17.7438 4.07565 18.3808C4.17447 18.519 4.25206 18.6742 4.32784 18.8275C5.79309 21.7659 7.25652 24.7048 8.72056 27.6432C8.87879 27.9608 9.0261 28.2808 9.00185 28.5475L9.00306 28.5481Z" fill="#1C7FAD" />
    <path d="M22.4616 6.18814C22.8196 5.83704 22.9459 5.28845 22.7985 4.80569C22.6511 4.30098 22.2511 3.94988 21.7457 3.88405L19.0506 3.46711C18.9453 3.44517 18.8611 3.37934 18.819 3.29156L17.6188 0.746088C17.4083 0.285269 16.945 0 16.4608 0C15.9554 0 15.5133 0.285269 15.2816 0.746088L14.0815 3.29156C14.0394 3.40128 13.9341 3.46711 13.8288 3.46711L11.1337 3.88405C10.6494 3.94988 10.2283 4.32292 10.0809 4.80569C9.93349 5.31039 10.0598 5.83704 10.4178 6.18814L12.376 8.16308C12.4602 8.22891 12.4812 8.36057 12.4602 8.47029L11.9969 11.2572C11.9127 11.7619 12.1022 12.2885 12.5233 12.5738C12.755 12.7493 13.0076 12.8371 13.2813 12.8371C13.4919 12.8371 13.7025 12.7932 13.892 12.6835L16.3134 11.3669C16.3976 11.323 16.5239 11.323 16.6081 11.3669L19.0296 12.6835C19.4717 12.9249 19.9981 12.881 20.3982 12.5738C20.7982 12.2666 21.0088 11.7619 20.9246 11.2352L20.4613 8.44835C20.4403 8.33863 20.4824 8.22891 20.5456 8.14114L22.4616 6.18814Z" fill="#1C7FAD" />
  </g>
  <defs>
    <clipPath id="clip0_32_1179">
      <rect width="31" height="31" fill="white" />
    </clipPath>
  </defs>
</svg>