<svg width="122" height="42" viewBox="0 0 122 42" fill="none" xmlns="http://www.w3.org/2000/svg">
<g clip-path="url(#clip0_26_1308)">
<path d="M39.88 13.5391C37.8144 13.5391 35.805 13.7757 33.8775 14.2234C31.5102 14.7739 29.2656 15.6435 27.1847 16.7806C22.5984 19.2915 18.8251 23.1298 16.3812 27.776C15.1183 30.1582 14.2082 32.7617 13.7173 35.5042C13.4361 37.058 13.293 38.6582 13.293 40.2944C13.293 40.6391 13.293 40.9838 13.3134 41.3234H26.1161C26.0854 40.9838 26.0752 40.6391 26.0752 40.2944C26.0752 38.3649 26.4689 36.5178 27.1847 34.8456C28.4987 31.7533 30.8967 29.2321 33.8979 27.776C35.713 26.8961 37.7428 26.4022 39.88 26.4022C40.1357 26.4022 40.3913 26.4073 40.6469 26.4279V13.5545C40.3913 13.5442 40.1357 13.5391 39.88 13.5391Z" fill="#2479E0"/>
<path d="M14.8121 0.675781C14.7558 2.42002 14.3672 4.08708 13.7179 5.61008C11.6114 10.5701 6.71323 14.0534 1.02258 14.0534C0.853853 14.0534 0.680015 14.0483 0.511289 14.038C0.342564 14.038 0.168725 14.0277 0 14.0123V26.896C0.168725 26.9011 0.337451 26.9063 0.511289 26.9114C0.680015 26.9166 0.853853 26.9166 1.02258 26.9166C5.61907 26.9166 9.94458 25.7435 13.7179 23.6751C17.7878 21.4472 21.2134 18.1799 23.642 14.2232C25.3599 11.4345 26.5819 8.30105 27.1853 4.95149C27.4358 3.55712 27.5789 2.13189 27.6045 0.675781L14.8121 0.675781Z" fill="#24A5E0"/>
</g>
<path d="M117.069 26.02H122V27.8546H114.465V26.02L119.416 18.8199H114.465V16.9854H122V18.8199L117.069 26.02Z" fill="#062126"/>
<path d="M112.108 16.9854V27.8546H109.859V26.5723C109.504 27.0195 109.037 27.3746 108.459 27.6376C107.893 27.8874 107.288 28.0124 106.644 28.0124C105.789 28.0124 105.02 27.8348 104.336 27.4798C103.665 27.1247 103.133 26.5986 102.738 25.9017C102.357 25.2047 102.166 24.363 102.166 23.3767V16.9854H104.395V23.0413C104.395 24.0145 104.638 24.7641 105.125 25.2901C105.612 25.803 106.276 26.0595 107.117 26.0595C107.959 26.0595 108.623 25.803 109.11 25.2901C109.609 24.7641 109.859 24.0145 109.859 23.0413V16.9854H112.108Z" fill="#062126"/>
<path d="M98.4137 27.9923C98.006 27.9923 97.6641 27.8543 97.3879 27.5781C97.1117 27.3019 96.9736 26.96 96.9736 26.5523C96.9736 26.1446 97.1117 25.8027 97.3879 25.5266C97.6641 25.2504 98.006 25.1123 98.4137 25.1123C98.8082 25.1123 99.1435 25.2504 99.4197 25.5266C99.6959 25.8027 99.8339 26.1446 99.8339 26.5523C99.8339 26.96 99.6959 27.3019 99.4197 27.5781C99.1435 27.8543 98.8082 27.9923 98.4137 27.9923Z" fill="#24A5E0"/>
<path d="M94.5545 13.2568V27.8543H92.3057V13.2568H94.5545Z" fill="#062126"/>
<path d="M84.4406 28.0319C83.4148 28.0319 82.4877 27.8018 81.6591 27.3415C80.8306 26.868 80.1797 26.2105 79.7062 25.3688C79.2328 24.514 78.9961 23.5277 78.9961 22.4099C78.9961 21.3052 79.2394 20.3255 79.726 19.4707C80.2126 18.6159 80.8767 17.9583 81.7183 17.498C82.56 17.0378 83.5003 16.8076 84.5392 16.8076C85.5781 16.8076 86.5184 17.0378 87.3601 17.498C88.2017 17.9583 88.8658 18.6159 89.3524 19.4707C89.839 20.3255 90.0823 21.3052 90.0823 22.4099C90.0823 23.5146 89.8324 24.4943 89.3327 25.3491C88.833 26.2039 88.1491 26.868 87.2812 27.3415C86.4263 27.8018 85.4795 28.0319 84.4406 28.0319ZM84.4406 26.079C85.0192 26.079 85.5584 25.9409 86.0581 25.6647C86.571 25.3886 86.9853 24.9743 87.3009 24.422C87.6165 23.8696 87.7743 23.1989 87.7743 22.4099C87.7743 21.6208 87.6231 20.9567 87.3206 20.4175C87.0181 19.8652 86.617 19.4509 86.1173 19.1748C85.6176 18.8986 85.0784 18.7605 84.4997 18.7605C83.9211 18.7605 83.3819 18.8986 82.8822 19.1748C82.3956 19.4509 82.0076 19.8652 81.7183 20.4175C81.429 20.9567 81.2843 21.6208 81.2843 22.4099C81.2843 23.5803 81.5802 24.4877 82.172 25.1321C82.777 25.7634 83.5331 26.079 84.4406 26.079Z" fill="#062126"/>
<path d="M73.1031 22.4296L78.1136 27.8543H75.0757L71.0515 23.1792V27.8543H68.8027V13.2568H71.0515V21.7392L74.9968 16.9851H78.1136L73.1031 22.4296Z" fill="#062126"/>
<path d="M57.4129 14.1445V22.8833C57.4129 23.9222 57.6825 24.7047 58.2216 25.2307C58.774 25.7568 59.5367 26.0198 60.5099 26.0198C61.4962 26.0198 62.259 25.7568 62.7982 25.2307C63.3505 24.7047 63.6267 23.9222 63.6267 22.8833V14.1445H65.8755V22.8438C65.8755 23.9617 65.6322 24.9085 65.1456 25.6844C64.659 26.4603 64.008 27.039 63.1927 27.4204C62.3773 27.8017 61.4765 27.9924 60.4902 27.9924C59.5039 27.9924 58.603 27.8017 57.7877 27.4204C56.9855 27.039 56.3476 26.4603 55.8742 25.6844C55.4008 24.9085 55.1641 23.9617 55.1641 22.8438V14.1445H57.4129Z" fill="#062126"/>
<defs>
<clipPath id="clip0_26_1308">
<rect width="40.6475" height="40.6475" fill="white" transform="translate(0 0.675781)"/>
</clipPath>
</defs>
</svg>
