<svg width="144" height="205" viewBox="0 0 144 205" fill="none" xmlns="http://www.w3.org/2000/svg">
<g clip-path="url(#clip0_35_1523)">
<path opacity="0.6" d="M139.257 44.8047C132.083 44.8047 125.105 45.6266 118.411 47.1812C110.19 49.0931 102.395 52.1128 95.1688 56.0618C79.2417 64.7815 66.1378 78.1113 57.6504 94.2464C53.2647 102.52 50.1041 111.561 48.3995 121.085C47.4229 126.481 46.9258 132.038 46.9258 137.72C46.9258 138.917 46.9258 140.115 46.9968 141.294H91.4578C91.3513 140.115 91.3157 138.917 91.3157 137.72C91.3157 131.02 92.683 124.605 95.1688 118.798C99.7321 108.059 108.06 99.3032 118.482 94.2464C124.786 91.191 131.835 89.4756 139.257 89.4756C140.145 89.4756 141.033 89.4935 141.92 89.5649V44.8583C141.033 44.8226 140.145 44.8047 139.257 44.8047Z" fill="white"/>
<path d="M52.2008 0.133789C52.0055 6.19116 50.656 11.9805 48.401 17.2696C41.0856 34.4947 24.0753 46.5915 4.31292 46.5915C3.72697 46.5915 3.12327 46.5737 2.53732 46.5379C1.95137 46.5379 1.34767 46.5022 0.761719 46.4486V91.191C1.34767 91.2088 1.93361 91.2267 2.53732 91.2446C3.12327 91.2625 3.72697 91.2625 4.31292 91.2625C20.2755 91.2625 35.2971 87.1885 48.401 80.0054C62.5348 72.2684 74.4313 60.922 82.8654 47.1812C88.8314 37.4965 93.0751 26.6147 95.1703 14.9824C96.0403 10.1401 96.5375 5.19054 96.6263 0.133789L52.2008 0.133789Z" fill="white"/>
</g>
<path d="M132.599 199.999H143.147V203.923H127.029V199.999L137.619 184.599H127.029V180.675H143.147V184.599L132.599 199.999Z" fill="white"/>
<path d="M121.988 180.675V203.923H117.178V201.18C116.419 202.136 115.42 202.896 114.183 203.458C112.973 203.993 111.679 204.26 110.301 204.26C108.473 204.26 106.827 203.88 105.365 203.121C103.93 202.361 102.791 201.236 101.947 199.746C101.131 198.255 100.724 196.455 100.724 194.345V180.675H105.491V193.628C105.491 195.709 106.012 197.312 107.052 198.438C108.093 199.535 109.514 200.083 111.314 200.083C113.114 200.083 114.534 199.535 115.575 198.438C116.644 197.312 117.178 195.709 117.178 193.628V180.675H121.988Z" fill="white"/>
<path d="M92.6962 204.213C91.8243 204.213 91.0929 203.917 90.5022 203.327C89.9116 202.736 89.6162 202.005 89.6162 201.133C89.6162 200.261 89.9116 199.529 90.5022 198.939C91.0929 198.348 91.8243 198.053 92.6962 198.053C93.5401 198.053 94.2573 198.348 94.848 198.939C95.4387 199.529 95.734 200.261 95.734 201.133C95.734 202.005 95.4387 202.736 94.848 203.327C94.2573 203.917 93.5401 204.213 92.6962 204.213Z" fill="white"/>
<path d="M84.4427 172.698V203.92H79.6328V172.698H84.4427Z" fill="white"/>
<path d="M62.81 204.302C60.616 204.302 58.633 203.81 56.8609 202.825C55.0889 201.813 53.6966 200.406 52.6839 198.606C51.6713 196.778 51.165 194.668 51.165 192.277C51.165 189.915 51.6854 187.819 52.7261 185.991C53.7669 184.163 55.1873 182.756 56.9875 181.772C58.7877 180.787 60.7989 180.295 63.021 180.295C65.2431 180.295 67.2542 180.787 69.0544 181.772C70.8546 182.756 72.2751 184.163 73.3158 185.991C74.3565 187.819 74.8769 189.915 74.8769 192.277C74.8769 194.64 74.3425 196.736 73.2736 198.564C72.2047 200.392 70.7421 201.813 68.8856 202.825C67.0573 203.81 65.0321 204.302 62.81 204.302ZM62.81 200.125C64.0476 200.125 65.2009 199.83 66.2697 199.239C67.3667 198.648 68.2528 197.762 68.9278 196.581C69.6029 195.4 69.9404 193.965 69.9404 192.277C69.9404 190.59 69.617 189.169 68.97 188.016C68.3231 186.835 67.4652 185.949 66.3963 185.358C65.3275 184.767 64.1742 184.472 62.9366 184.472C61.6989 184.472 60.5457 184.767 59.4768 185.358C58.4361 185.949 57.6063 186.835 56.9875 188.016C56.3687 189.169 56.0593 190.59 56.0593 192.277C56.0593 194.781 56.6922 196.722 57.9579 198.1C59.2518 199.45 60.8692 200.125 62.81 200.125Z" fill="white"/>
<path d="M38.5611 192.317L49.2779 203.92H42.7803L34.1732 193.921V203.92H29.3633V172.698H34.1732V190.841L42.6115 180.673H49.2779L38.5611 192.317Z" fill="white"/>
<path d="M5.00226 174.598V193.289C5.00226 195.511 5.57888 197.184 6.73213 198.309C7.9135 199.435 9.54492 199.997 11.6264 199.997C13.736 199.997 15.3674 199.435 16.5206 198.309C17.702 197.184 18.2927 195.511 18.2927 193.289V174.598H23.1026V193.204C23.1026 195.595 22.5822 197.62 21.5415 199.28C20.5007 200.939 19.1084 202.177 17.3645 202.993C15.6206 203.809 13.6938 204.216 11.5842 204.216C9.4746 204.216 7.54784 203.809 5.80391 202.993C4.0881 202.177 2.7239 200.939 1.71129 199.28C0.698686 197.62 0.192383 195.595 0.192383 193.204V174.598H5.00226Z" fill="white"/>
<defs>
<clipPath id="clip0_35_1523">
<rect width="141.16" height="141.16" fill="white" transform="translate(0.761719 0.133789)"/>
</clipPath>
</defs>
</svg>
