<svg width="30" height="30" viewBox="0 0 30 30" fill="none" xmlns="http://www.w3.org/2000/svg">
<path opacity="0.4" d="M27.5 19.925C27.5 23.4125 24.7 26.2375 21.2125 26.25H21.2H8.8125C5.3375 26.25 2.5 23.4375 2.5 19.95V19.9375C2.5 19.9375 2.5075 14.405 2.5175 11.6225C2.51875 11.1 3.11875 10.8075 3.5275 11.1325C6.4975 13.4887 11.8088 17.785 11.875 17.8412C12.7625 18.5525 13.8875 18.9537 15.0375 18.9537C16.1875 18.9537 17.3125 18.5525 18.2 17.8275C18.2663 17.7837 23.4588 13.6162 26.4738 11.2212C26.8838 10.895 27.4862 11.1875 27.4875 11.7087C27.5 14.47 27.5 19.925 27.5 19.925" fill="#24A5E0"/>
<path d="M26.8451 7.0925C25.7626 5.0525 23.6326 3.75 21.2876 3.75H8.8126C6.4676 3.75 4.3376 5.0525 3.2551 7.0925C3.0126 7.54875 3.1276 8.1175 3.53135 8.44L12.8126 15.8637C13.4626 16.3887 14.2501 16.65 15.0376 16.65C15.0426 16.65 15.0463 16.65 15.0501 16.65C15.0538 16.65 15.0588 16.65 15.0626 16.65C15.8501 16.65 16.6376 16.3887 17.2876 15.8637L26.5688 8.44C26.9726 8.1175 27.0876 7.54875 26.8451 7.0925" fill="#24A5E0"/>
</svg>
