<svg width="17" height="17" viewBox="0 0 17 17" fill="none" xmlns="http://www.w3.org/2000/svg">
<path d="M16.474 8.19405C16.9479 7.72914 17.1152 7.00272 16.9201 6.36347C16.7249 5.69516 16.1952 5.23025 15.526 5.14308L11.9572 4.59099C11.8178 4.56194 11.7063 4.47477 11.6506 4.35854L10.0613 0.987936C9.78253 0.377741 9.16914 0 8.52788 0C7.85874 0 7.27324 0.377741 6.96655 0.987936L5.37733 4.35854C5.32157 4.50382 5.18216 4.59099 5.04276 4.59099L1.47399 5.14308C0.832728 5.23025 0.275108 5.72422 0.079941 6.36347C-0.115226 7.03178 0.0520596 7.72914 0.526037 8.19405L3.11897 10.8092C3.23049 10.8963 3.25837 11.0707 3.23049 11.216L2.61711 14.9062C2.50559 15.5745 2.75652 16.2719 3.31414 16.6496C3.62083 16.8821 3.9554 16.9983 4.31785 16.9983C4.59666 16.9983 4.87547 16.9402 5.1264 16.7949L8.33272 15.0515C8.44424 14.9934 8.61152 14.9934 8.72305 15.0515L11.9294 16.7949C12.5149 17.1145 13.2119 17.0564 13.7416 16.6496C14.2714 16.2428 14.5502 15.5745 14.4387 14.8771L13.8253 11.1869C13.7974 11.0416 13.8532 10.8963 13.9368 10.7801L16.474 8.19405Z" fill="#FFC534"/>
</svg>
