<svg width="21" height="18" viewBox="0 0 21 18" fill="none" xmlns="http://www.w3.org/2000/svg">
<path fill-rule="evenodd" clip-rule="evenodd" d="M18.0169 0.429965C18.264 0.325956 18.5345 0.290084 18.8002 0.326082C19.0659 0.362081 19.317 0.468633 19.5276 0.63465C19.7381 0.800667 19.9003 1.02008 19.9973 1.27005C20.0942 1.52002 20.1224 1.79141 20.0789 2.05597L17.8109 15.813C17.5909 17.14 16.1349 17.901 14.9179 17.24C13.8999 16.687 12.3879 15.835 11.0279 14.946C10.3479 14.501 8.26489 13.076 8.52089 12.062C8.74089 11.195 12.2409 7.93696 14.2409 5.99997C15.0259 5.23897 14.6679 4.79997 13.7409 5.49997C11.4389 7.23797 7.74289 9.88097 6.52089 10.625C5.44289 11.281 4.88089 11.393 4.20889 11.281C2.98289 11.077 1.84589 10.761 0.917888 10.376C-0.336112 9.85597 -0.275112 8.13197 0.916888 7.62997L18.0169 0.429965Z" fill="#062126" fill-opacity="0.7"/>
</svg>
