<svg width="36" height="36" viewBox="0 0 36 36" fill="none" xmlns="http://www.w3.org/2000/svg">
<path fill-rule="evenodd" clip-rule="evenodd" d="M12.7974 4.40516C16.0747 2.50091 20.103 2.53419 23.3496 4.49234C26.5642 6.49037 28.5179 10.0563 28.4997 13.8922C28.4249 17.7029 26.3299 21.285 23.7112 24.0541C22.1998 25.6596 20.5089 27.0792 18.6733 28.2841C18.4842 28.3934 18.2771 28.4666 18.0622 28.5C17.8554 28.4912 17.654 28.4301 17.4761 28.3222C14.6736 26.5119 12.215 24.2011 10.2185 21.5009C8.54788 19.247 7.59875 16.524 7.5 13.7016C7.49783 9.85837 9.52015 6.3094 12.7974 4.40516ZM14.6912 15.2922C15.2425 16.6513 16.5438 17.5378 17.9874 17.5378C18.9332 17.5446 19.8423 17.1657 20.5122 16.4857C21.1821 15.8057 21.5572 14.881 21.5539 13.9176C21.5589 12.4471 20.6932 11.1185 19.3609 10.5522C18.0286 9.98585 16.4926 10.2935 15.47 11.3315C14.4474 12.3695 14.14 13.9331 14.6912 15.2922Z" fill="#519C3B"/>
<ellipse opacity="0.4" cx="18" cy="31.5" rx="7.5" ry="1.5" fill="#519C3B"/>
</svg>
